<svg xmlns="http://www.w3.org/2000/svg" xmlns:xlink="http://www.w3.org/1999/xlink" data-name="Layer 1" width="949.7999877929688" height="661.52001953125"><rect id="backgroundrect" width="100%" height="100%" x="0" y="0" fill="none" stroke="none"/><defs><linearGradient id="b4d6f2bc-ae5e-476c-81ed-6eb215cdf2b8" x1="0.4998280704021454" y1="1.000135898590088" x2="0.4998280704021454" y2="0.00005175155456527136"><stop offset="0" stop-color="gray" stop-opacity="0.25"/><stop offset="0.54" stop-color="gray" stop-opacity="0.12"/><stop offset="1" stop-color="gray" stop-opacity="0.1"/></linearGradient><linearGradient id="9c7f1c1e-55bc-40cd-85e2-0f597ed8a8ed" x1="266.19000244140625" y1="487.1099853515625" x2="266.19000244140625" y2="486.8900146484375" xlink:href="#b4d6f2bc-ae5e-476c-81ed-6eb215cdf2b8"/><linearGradient id="9ac4e148-2e83-4d81-ad56-620a328cd147" x1="252.5500030517578" y1="605" x2="252.5500030517578" y2="271" xlink:href="#b4d6f2bc-ae5e-476c-81ed-6eb215cdf2b8"/><linearGradient id="2bd42fb4-2e8b-436b-a616-1dc6bfdc374d" x1="852.6599731445312" y1="602" x2="852.6599731445312" y2="195" xlink:href="#b4d6f2bc-ae5e-476c-81ed-6eb215cdf2b8"/></defs><title>celebration</title><g class="currentLayer" style=""><title>Layer 1</title><circle cx="95.12999725341797" cy="66.02999877929688" r="46.4900016784668" fill="#f6ebe0" id="svg_1" class="" fill-opacity="1"/><path d="M89.45000152587892,160.6700021362305 C108.9700015258789,204.76000213623047 84.0700015258789,255.53000213623045 54.76000152587892,293.76000213623047 c-9.81,12.82 -20.64,26.26 -22,42.34 c-1.6400000000000001,19.67 11.68,37.75 27.48,49.57 c28.82,21.54 68.18,28.2 102.48,17.33 c29.64,-9.39 54.56,-30.6 84.46,-39.15 c50,-14.32 103,9.42 145.82,39 C423.3100015258789,423.76000213623047 455.7700015258789,449.2400021362305 492.3100015258789,444.76000213623047 c25.71,-3.15 47.53,-21.2 62.34,-42.45 c7.15,-10.26 13.37,-21.76 23.78,-28.68 c6.19,-4.12 13.46,-6.3 20.73,-7.86 c66.39,-14.19 136.85,20.44 202.36,2.63 c44.25,-12 79.53,-47 101.47,-87.27 s32.18,-85.74 40.71,-130.79 c6.06,-32 11.09,-66.57 -2.84,-96 c-14.74,-31.16 -48.86,-50.05 -83.15,-53.59 S789.0300015258789,6.980002136230468 757.4400015258789,20.76000213623047 c-39.47,17.26 -78.16,41.42 -121.24,41.5 c-29.34,0.06000000000000001 -57.32,-11.2 -85.37,-19.79 c-46.9,-14.35 -95.67,-21.48 -144.27,-28.06 c-46.53,-6.3 -93.52,-12.16 -140.33,-8.44 c-33.12,2.63 -62.37,15.29 -94.51,21.15 c-20.95,3.8200000000000003 -42,1 -62.56,7.4 c-25.32,7.92 -51.36,26.27 -52.76,55.17 C55.08000152587891,117.20000213623047 79.1000015258789,137.28000213623045 89.45000152587892,160.6700021362305 z" fill="#f9f8fe" opacity="1" id="svg_2" class="" fill-opacity="1"/><path d="M601.9000015258789,199.93000213623048 c-4.27,-11.13 -15.28,-37.29 -22.53,-32.1 c-9.16,6.5600000000000005 9.16,35.54 9.16,35.54 c0.52,5.32 -9.78,16.39 -15.3,21.91 c0,-0.44000000000000006 0,-0.6900000000000002 0,-0.6900000000000002 a2.4,2.4 0 0 1 -0.24000000000000002,0.6000000000000001 l-0.46,-0.25 a3,3 0 0 1 -0.6500000000000001,1.19 c0,-0.7500000000000001 -0.05000000000000001,-1.19 -0.05000000000000001,-1.19 c-1.06,4.49 -19.56,10.18 -19.56,10.18 s-0.5,0 -1.36,0 c-5.14,0 -18.52,-1.1600000000000001 -24.72,-11.08 a54.86,54.86 0 0 0 -12.13,-14.15 a10.33,10.33 0 0 0 -5.75,-2.18 c-17.13,-1.1 -31,-9.77 -33.77,-11.620000000000001 l-0.51,-0.35000000000000003 l-0.11000000000000001,0.32000000000000006 c-0.6500000000000001,-0.93 -1.28,-1.92 -1.87,-2.94 l0,0 l-0.30000000000000004,-0.55 a25.12,25.12 0 0 0 13.85,-22.34 c0,-0.17 0,-0.35000000000000003 0,-0.52 a17.11,17.11 0 0 0 2.3,-8.57 v-3 l3.91,-3.48 c1.79,-1.59 3.64,-3.27 4.55,-5.46 a6.47,6.47 0 0 0 0.48000000000000004,-2.8 a4.85,4.85 0 0 0 -1.84,-4.34 c-3,-2.07 -8,0 -10.17,-2.88 c-1,-1.3 -0.8200000000000001,-3.07 -1.31,-4.6 c-1,-3.11 -4.6,-4.79 -7.93,-4.84 s-6.52,1.1600000000000001 -9.72,2.07 a57.07,57.07 0 0 1 -20.7,1.94 a13.52,13.52 0 0 0 -5.67,0.2 a7.8100000000000005,7.8100000000000005 0 0 0 -4.6,5.35 a12.57,12.57 0 0 0 -0.44000000000000006,2.74 a17.24,17.24 0 0 0 -4.34,11.41 v7.69 a17.23,17.23 0 0 0 4.15,11.19 a25,25 0 0 0 10.47,18.24 q0,0.30000000000000004 0,0.6100000000000001 l0.13,0.08000000000000002 a41.35,41.35 0 0 1 -1.1,7.07 l0,-0.51 s-14,7.45 -29,7.63 h-1.6500000000000001 a11.17,11.17 0 0 0 -8,3 c-4.44,4.18 -12.22,10.79 -17,10.79 c-1,0 -26.24,4.93 -30.42,5.75 l-7.8100000000000005,-7.65 l-0.24000000000000002,0.45 l-0.46,-0.45 a19,19 0 0 0 -2.54,0.37000000000000005 c-4,-4.74 -12,-15.76 -13.85,-30.55 c0,0 17.27,-19.67 10.92,-38 c-5.42,-15.620000000000001 -20.35,17.86 -24.59,27.95 a8.06,8.06 0 0 0 -0.26,5.55 L332.9000015258789,227.88000213623047 a21.21,21.21 0 0 0 -1.11,11 l-0.16000000000000003,0 l10.22,13.11 s7.69,3.2800000000000002 19.72,3.22 a68.94,68.94 0 0 0 25.74,-4.94 h2.37 l-0.45,0.17 H401.4000015258789 l7.74,23.41 c-0.26,2.13 -4,31.86 -7,38.51 a16.71,16.71 0 0 0 -1.18,7 a53.44,53.44 0 0 0 2.23,13.55 l6.78,-0.25 l-0.26,0.53 c-5.74,11.77 -15.33,32.74 -21,52.34 l-9.870000000000001,20 l7.4,89.7 h0 l0.30000000000000004,0 h0 l0.5700000000000001,0.09000000000000002 h0 c0.8,0.12000000000000001 2,0.30000000000000004 3.58,0.5 l-0.5800000000000001,1 l-16.31,27 s-11.63,23.81 14.1,19.32 c0,0 9.51,-2.7600000000000002 13.39,-19 l16.92,-15.870000000000001 s0.79,-10.54 -4,-14.75 c-0.30000000000000004,-4.87 -1.06,-19.09 0.11000000000000001,-22.51 c1.4100000000000001,-4.14 -6,-51.75 -6,-51.75 s26.78,-55.55 43,-56.93 a8.89,8.89 0 0 1 3.51,0.46 c13.33,4.34 29.48,36.57 34.23,46.6 l0,0 l0.22000000000000003,0.46 l0,0.09000000000000002 l0.18000000000000002,0.39000000000000007 l0,0.11000000000000001 l0.16000000000000003,0.3400000000000001 l0,0.09000000000000002 l0.14,0.31000000000000005 l0,0.07 l0.12000000000000001,0.25 l0,0.1 l0.09000000000000002,0.19000000000000003 l0,0.08000000000000002 l0.06000000000000001,0.14 l0,0.08000000000000002 l0,0.09000000000000002 h0 l0.05000000000000001,0.12000000000000001 l2.11,62.45 h0 l0,0 h0 l0.21000000000000002,0.11000000000000001 h0 l0.1,0 l-0.18000000000000002,1.29 l-0.92,6.45 s11.63,24.5 10.92,27.6 s7.75,15.53 19.73,12.08 S526.9000015258789,499.3800021362305 526.9000015258789,499.3800021362305 l-11.54,-23.78 l-0.51,-1.06 a22.68,22.68 0 0 0 3.24,-2.41 s-3.52,-25.53 0,-31.05 s4.58,-30.71 4.58,-30.71 s-2.47,-17.25 -6.7,-24.84 l-17.72,-63.25 c5.3100000000000005,4.94 9.44,6.87 12.89,6.74 h0.5700000000000001 a8.61,8.61 0 0 0 4.34,-1.08 a12.23,12.23 0 0 0 2,-1.4100000000000001 a3.16,3.16 0 0 0 0.33000000000000007,-0.33000000000000007 l0,0 c4.93,-4.14 -5.640000000000001,-20.36 -11.63,-30 c-5.77,-9.3 2.18,-34.57 2.7800000000000002,-36.45 a9.54,9.54 0 0 1 1.71,-1 a10.55,10.55 0 0 1 3.92,-0.8500000000000001 c5.74,0.2 12.8,3.5 21.54,5.16 a101.62,101.62 0 0 0 18.39,1.4300000000000002 h0.36000000000000004 c2.45,0 4.67,-0.05000000000000001 6.47,-0.12000000000000001 a10.93,10.93 0 0 0 4.7,-1.27 h0 a14.19,14.19 0 0 0 3.34,-2.7 l15.34,-17.33 l-0.4,0.19000000000000003 a8.620000000000001,8.620000000000001 0 0 0 0,-6.1 l16.21,-28 A10.65,10.65 0 0 0 601.9000015258789,199.93000213623048 z" fill="url(#b4d6f2bc-ae5e-476c-81ed-6eb215cdf2b8)" id="svg_3" class=""/><path d="M419.7800015258789,505.90000213623046 l-16.33,15.65 c-3.74,16 -12.93,18.71 -12.93,18.71 c-24.83,4.42 -13.61,-19 -13.61,-19 l15.75,-26.65 l1.94,-3.29 s11.23,-3.4 18.71,-1.36 a6.4,6.4 0 0 1 2.55,1.3800000000000001 C420.5500015258789,495.41000213623045 419.7800015258789,505.90000213623046 419.7800015258789,505.90000213623046 z" fill="#444176" id="svg_4"/><path d="M520.470001525879,519.8500021362305 c-11.57,3.4 -19.73,-8.84 -19,-11.91 S490.9000015258789,480.76000213623047 490.9000015258789,480.76000213623047 l0.8800000000000001,-6.36 l0.8200000000000001,-5.890000000000001 l19,1.36 l1.79,3.7600000000000002 l11.14,23.45 S532.0400015258789,516.4500021362305 520.470001525879,519.8500021362305 z" fill="#444176" id="svg_5"/><path d="M416.0400015258789,494.0000021362305 c-1.79,3.07 -16.3,1.52 -23.37,0.56 l1.94,-3.29 s11.23,-3.4 18.71,-1.36 a6.4,6.4 0 0 1 2.55,1.3800000000000001 C415.97000152587896,492.9500021362305 416.0400015258789,494.0000021362305 416.0400015258789,494.0000021362305 z" opacity="0.1" id="svg_6"/><path d="M513.4100015258789,473.6100021362305 c-9.73,6.48 -20.09,1.58 -21.65,0.77 l0.8200000000000001,-5.890000000000001 l19,1.36 z" opacity="0.1" id="svg_7"/><path d="M516.0500015258789,439.5700021362304 c-3.4,5.44 0,30.62 0,30.62 c-11.23,10.21 -24.49,2.72 -24.49,2.72 l-2,-61.57 s-22.11,-50.69 -37.76,-49.33 s-41.5,56.13 -41.5,56.13 s7.14,46.94 5.78,51 s0,23.81 0,23.81 c-2.38,4.08 -27.21,0 -27.21,0 l-7.14,-88.45 L391.21000152587885,384.76000213623047 c5.45,-19.32 14.71,-40 20.25,-51.6 c2.75,-5.77 4.59,-9.29 4.59,-9.29 l18.1,-3.77 L492.9000015258789,307.9200021362305 L514.0100015258789,384.76000213623047 c4.08,7.48 6.46,24.49 6.46,24.49 S519.4500015258789,434.1300021362305 516.0500015258789,439.5700021362304 z" fill="#565387" id="svg_8"/><g opacity="0.1" id="svg_9"><path d="M497.00000152587893,472.91000213623045 l-2,-61.57 s-22.11,-50.69 -37.76,-49.33 a8.52,8.52 0 0 0 -2.05,0.46 c15.26,5.07 34.37,48.87 34.37,48.87 l2,61.57 a24,24 0 0 0 13.53,2.47 A24.07,24.07 0 0 1 497.00000152587893,472.91000213623045 z" id="svg_10"/><path d="M394.2700015258789,492.9800021362305 l-7.14,-88.45 L396.6500015258789,384.76000213623047 c5.45,-19.32 14.71,-40 20.25,-51.6 c2.75,-5.77 4.59,-9.29 4.59,-9.29 l18.1,-3.77 l53.63,-11.15 l-0.29000000000000004,-1.07 l-58.78,12.22 l-18.1,3.77 s-1.84,3.52 -4.59,9.29 C405.9000015258789,344.76000213623047 396.6600015258789,365.4800021362305 391.21000152587885,384.76000213623047 l-9.52,19.73 l7.14,88.45 s13.56,2.23 21.6,1.7400000000000002 A160.66,160.66 0 0 1 394.2700015258789,492.9800021362305 z" id="svg_11"/></g><path d="M352.9000015258789,218.97000213623045 s-19.39,1 -16.67,21.43 l5.44,0.6800000000000002 l8.16,-8.84 l4.08,-7.48 v-1.7000000000000002 z" fill="#ced2df" id="svg_12"/><path d="M352.9000015258789,218.97000213623045 s-19.39,1 -16.67,21.43 l5.44,0.6800000000000002 l8.16,-8.84 l4.08,-7.48 v-1.7000000000000002 z" opacity="0.1" id="svg_13"/><path d="M568.6100015258789,226.45000213623047 s16,8.5 11.91,18.37 l-5.1,2 l-6.8,-3.74 l-1,-8.84 l0.6800000000000002,-6.12 z" fill="#ced2df" id="svg_14"/><path d="M568.6100015258789,226.45000213623047 s16,8.5 11.91,18.37 l-5.1,2 l-6.8,-3.74 l-1,-8.84 l0.6800000000000002,-6.12 z" opacity="0.1" id="svg_15"/><rect x="431.17999267578125" y="138.67999267578125" width="55.790000915527344" height="42.18000030517578" rx="21.09000015258789" ry="21.09000015258789" fill="#8e7358" id="svg_16" class="" fill-opacity="1"/><path d="M352.7700015258789,221.8600021362305 l-11.91,19 l-1,-3.38 L323.6800015258789,184.76000213623047 a8.11,8.11 0 0 1 0.25,-5.47 c4.09,-9.94 18.51,-43 23.74,-27.55 c6.12,18 -10.55,37.42 -10.55,37.42 c1.9,15.76 10.75,27.18 14.23,31.14 C352.2300015258789,221.33000213623046 352.7700015258789,221.8600021362305 352.7700015258789,221.8600021362305 z" fill="#f7ccc0" id="svg_17" class="" fill-opacity="1"/><path d="M566.0600015258789,230.02000213623046 s18.71,-17.69 18,-24.83 c0,0 -17.69,-28.57 -8.84,-35 c7,-5.12 17.63,20.68 21.75,31.65 a10.7,10.7 0 0 1 -0.7100000000000001,9 L573.9000015258789,250.43000213623048 z" fill="#f7ccc0" id="svg_18" class="" fill-opacity="1"/><path d="M444.95000152587886,180.70000213623047 s3.4,21.77 -6.46,29.94 S466.73000152587895,218.76000213623047 466.73000152587895,218.76000213623047 l13.61,-12.59 s-15.65,-14.63 -10.89,-25.51 z" fill="#dda696" id="svg_19" class="" fill-opacity="1"/><path d="M444.2700015258789,205.53000213623045 s14.63,10.89 29.25,-1.36 l23.81,49.33 l-1.36,60.21 s-49.33,25.51 -69.74,9.870000000000001 s-3.4,-23.81 -3.4,-23.81 l-4.76,-46.26 l5.1,-29.94 s9.18,-14.29 9.870000000000001,-14.29 S444.2700015258789,205.53000213623045 444.2700015258789,205.53000213623045 z" opacity="0.1" id="svg_20"/><path d="M444.2700015258789,204.85000213623044 S458.9000015258789,215.76000213623047 473.5300015258789,203.4900021362305 l23.81,49.33 l-1.36,60.21 s-49.33,25.51 -69.74,9.870000000000001 s-3.4,-23.81 -3.4,-23.81 l-4.76,-46.26 l5.1,-29.94 s9.18,-14.29 9.870000000000001,-14.29 S444.2700015258789,204.85000213623044 444.2700015258789,204.85000213623044 z" fill="#ebf1f6" id="svg_21"/><path d="M444.2700015258789,199.76000213623047 s-13.870000000000001,7.9 -28.93,7.51 a10.66,10.66 0 0 0 -7.69,2.94 c-4.29,4.12 -11.8,10.64 -16.45,10.64 c-1,0 -29.94,5.78 -29.94,5.78 l-7.65,-7.65 s-11.4,22.28 -16.84,21.26 l9.870000000000001,12.93 s18.71,8.16 43.2,-1.7000000000000002 h14.29 l7.48,23.13 s-3.74,31.3 -6.8,38.1 s1,20.07 1,20.07 l26.87,-1 s1.36,-13.27 3.4,-15 s-7.14,-60.21 -7.14,-60.21 s-6.12,-33 16.33,-44.9 z" opacity="0.1" id="svg_22"/><path d="M434.1400015258789,320.14000213623046 a88.81,88.81 0 0 0 -2.11,12.27 l-20.57,0.78 c2.75,-5.77 4.59,-9.29 4.59,-9.29 z" opacity="0.1" id="svg_23"/><path d="M352.7700015258789,221.8600021362305 l-11.91,19 l-1,-3.38 c4.37,-4.34 9.49,-13.41 11.53,-17.19 C352.2300015258789,221.33000213623046 352.7700015258789,221.8600021362305 352.7700015258789,221.8600021362305 z" opacity="0.1" id="svg_24"/><path d="M444.2700015258789,199.76000213623047 s-14.56,7.9 -29.61,7.51 a10.66,10.66 0 0 0 -7.69,2.94 c-4.29,4.12 -11.8,10.64 -16.45,10.64 c-1,0 -29.94,5.78 -29.94,5.78 L352.9000015258789,218.97000213623045 s-11.4,22.28 -16.84,21.26 l9.870000000000001,12.93 s18.71,8.16 43.2,-1.7000000000000002 h14.29 L410.9000015258789,274.58000213623046 s-3.74,31.3 -6.8,38.1 s1,20.07 1,20.07 l26.87,-1 s1.36,-13.27 3.4,-15 s-7.14,-60.21 -7.14,-60.21 s-6.12,-33 16.33,-44.9 z" fill="#ced2df" id="svg_25"/><path d="M473.5300015258789,197.70000213623047 s13.88,10.58 32.41,11.8 a9.85,9.85 0 0 1 5.55,2.15 a53.72,53.72 0 0 1 11.71,14 c7.48,12.25 25.85,10.89 25.85,10.89 s17.86,-5.61 18.88,-10 c0,0 0.51,24 11.74,18.2 L564.9000015258789,261.76000213623047 a10.42,10.42 0 0 1 -7.45,3.59 c-5.55,0.22000000000000003 -15.19,0.29000000000000004 -23.33,-1.29 c-12.25,-2.38 -21.09,-8.16 -27.55,-3.06 c0,0 -8.5,26.53 -2.72,36.06 s16,25.51 11.23,29.6 s-10.55,3.74 -20.07,-6.12 s-10.55,-26.53 -10.55,-26.53 l2.38,-42.86 s-9.18,-32.32 -18,-38.78 z" opacity="0.1" id="svg_26"/><path d="M581.0200015258789,244.31000213623048 l-14.81,17.09 a10.41,10.41 0 0 1 -3.5700000000000003,2.66 h0 a10.37,10.37 0 0 1 -3.8600000000000003,0.91 c-5.55,0.23 -15.19,0.30000000000000004 -23.33,-1.29 c-11.46,-2.23 -19.94,-7.43 -26.28,-3.92 a9.3,9.3 0 0 0 -1.28,0.8500000000000001 s-8.5,26.53 -2.72,36.06 s16,25.51 11.23,29.6 a11,11 0 0 1 -2.66,1.73 c-4.28,1.9300000000000002 -9.59,0.26 -17.41,-7.85 c-9.52,-9.870000000000001 -10.55,-26.53 -10.55,-26.53 L488.1600015258789,250.76000213623047 s-9.18,-32.32 -18,-38.78 l3.89,-13.95 c2.68,1.82 16.06,10.37 32.6,11.46 a9.85,9.85 0 0 1 5.55,2.15 a53.76,53.76 0 0 1 11.71,14 c7.48,12.25 25.85,10.89 25.85,10.89 a99.27,99.27 0 0 0 12.870000000000001,-5.12 l0,0 c2.6100000000000003,-1.28 4.91,-2.68 6,-4 a3,3 0 0 0 0.6500000000000001,-1.2 S569.8000015258789,250.09000213623045 581.0200015258789,244.31000213623048 z" opacity="0.1" id="svg_27"/><path d="M580.340001525879,244.65000213623046 L565.5400015258789,261.76000213623047 a10.41,10.41 0 0 1 -2.88,2.3200000000000003 h0 a10.38,10.38 0 0 1 -4.54,1.25 c-5.55,0.23 -15.19,0.30000000000000004 -23.33,-1.29 c-11.05,-2.15 -19.34,-7.07 -25.59,-4.26 a9.25,9.25 0 0 0 -2,1.19 s-8.5,26.53 -2.72,36.06 s16,25.51 11.23,29.6 a11.8,11.8 0 0 1 -2,1.3900000000000001 c-4.4,2.43 -9.84,1 -18.09,-7.51 c-9.52,-9.870000000000001 -10.55,-26.53 -10.55,-26.53 l2.38,-42.86 s-9.18,-32.32 -18,-38.78 l4.08,-14.63 l0.49000000000000005,0.3400000000000001 c2.68,1.82 16.06,10.37 32.6,11.46 a9.85,9.85 0 0 1 5.55,2.15 a53.76,53.76 0 0 1 11.71,14 c7.48,12.25 25.85,10.89 25.85,10.89 a99.27,99.27 0 0 0 12.870000000000001,-5.12 l0,0 c3.09,-1.58 5.61,-3.31 6,-4.890000000000001 c0,0 0,0.31000000000000005 0,0.8600000000000001 C568.9000015258789,231.53000213623045 570.4000015258789,249.76000213623047 580.340001525879,244.65000213623046 z" fill="#ced2df" id="svg_28" class=""/><path d="M469.75000152587893,181.21000213623046 h-25 a61.18,61.18 0 0 1 0.47000000000000003,12 a25.7,25.7 0 0 0 26.42,1.9 C469.24000152587894,190.6700021362305 467.7800015258789,185.63000213623047 469.75000152587893,181.21000213623046 z" opacity="0.1" id="svg_29"/><circle cx="459.9200134277344" cy="172.52999877929688" r="24.829999923706055" fill="#f7ccc0" id="svg_30" class="" fill-opacity="1"/><path d="M454.7600015258789,168.1100021362305 c2.77,-0.33000000000000007 5.54,-1.31 8.27,-0.7600000000000001 c2.48,0.5 4.59,2.21 7.07,2.73 c4.78,1 9.22,-2.52 12.83,-5.8 l7.8,-7.1 c1.73,-1.57 3.51,-3.22 4.4,-5.38 s0.5800000000000001,-5 -1.32,-6.36 c-2.85,-2 -7.76,0 -9.82,-2.84 c-0.93,-1.28 -0.79,-3 -1.27,-4.53 c-1,-3.06 -4.44,-4.73 -7.66,-4.77 s-6.3,1.1400000000000001 -9.38,2 a54,54 0 0 1 -20,1.9100000000000001 a12.78,12.78 0 0 0 -5.47,0.19000000000000003 a7.65,7.65 0 0 0 -4.44,5.27 c-1.54,5.44 1.09,14.21 3.73,19.08 S449.49000152587894,168.76000213623047 454.7600015258789,168.1100021362305 z" opacity="0.1" id="svg_31"/><path d="M454.7600015258789,167.43000213623048 c2.77,-0.33000000000000007 5.54,-1.31 8.27,-0.7600000000000001 c2.48,0.5 4.59,2.21 7.07,2.73 c4.78,1 9.22,-2.52 12.83,-5.8 l7.8,-7.1 c1.73,-1.57 3.51,-3.22 4.4,-5.38 s0.5800000000000001,-5 -1.32,-6.36 c-2.85,-2 -7.76,0 -9.82,-2.84 c-0.93,-1.28 -0.79,-3 -1.27,-4.53 c-1,-3.06 -4.44,-4.73 -7.66,-4.77 s-6.3,1.1400000000000001 -9.38,2 a54,54 0 0 1 -20,1.9100000000000001 a12.78,12.78 0 0 0 -5.47,0.19000000000000003 a7.65,7.65 0 0 0 -4.44,5.27 c-1.54,5.44 1.09,14.21 3.73,19.08 S449.49000152587894,168.03000213623045 454.7600015258789,167.43000213623048 z" fill="#8e7358" id="svg_32" class="" fill-opacity="1"/><path d="M411.45000152587886,274.76000213623047 s5.44,0.6800000000000002 8.16,4.08 s7.48,4.42 7.48,4.42 " opacity="0.1" id="svg_33"/><path d="M362.4600015258789,229.85000213623044 S366.9000015258789,239.76000213623047 364.1600015258789,240.76000213623047 s-1.7000000000000002,8.16 -1.7000000000000002,8.16 " opacity="0.1" id="svg_34"/><g opacity="0.1" id="svg_35"><path d="M363.9900015258789,226.45000213623047 S392.9000015258789,220.6700021362305 393.9000015258789,220.6700021362305 c4.66,0 12.16,-6.52 16.45,-10.64 a10.5,10.5 0 0 1 4.66,-2.59 h-0.37000000000000005 a10.66,10.66 0 0 0 -7.69,2.94 c-4.29,4.12 -11.8,10.64 -16.45,10.64 c-0.81,0 -19.31,3.67 -26.82,5.16 z" id="svg_36"/><path d="M444.3100015258789,201.19000213623048 l0,-1.27 a72.18,72.18 0 0 1 -22.16,7.09 A68.48,68.48 0 0 0 444.3100015258789,201.19000213623048 z" id="svg_37"/><path d="M408.5600015258789,332.58000213623046 s-4.08,-13.27 -1,-20.07 s6.8,-38.1 6.8,-38.1 L406.9000015258789,251.28000213623045 H392.57000152587887 l-0.8700000000000001,0.3400000000000001 h11.75 L410.9000015258789,274.76000213623047 s-3.74,31.3 -6.8,38.1 s1,20.07 1,20.07 l26.87,-1 l0,-0.21000000000000002 z" id="svg_38"/></g><g opacity="0.1" id="svg_39"><path d="M516.0500015258789,321.1900021362305 a11.8,11.8 0 0 1 -2,1.3900000000000001 c-4.4,2.43 -9.84,1 -18.09,-7.51 c-7.5600000000000005,-7.83 -9.76,-20 -10.35,-24.61 l-0.2,3.52 s1,16.67 10.55,26.53 c8.25,8.54 13.69,9.94 18.09,7.51 a11.8,11.8 0 0 0 2,-1.3900000000000001 c1.4300000000000002,-1.23 1.51,-3.54 0.7600000000000001,-6.42 A3.15,3.15 0 0 1 516.0500015258789,321.1900021362305 z" id="svg_40"/><path d="M575.5300015258789,245.16000213623045 L565.9000015258789,256.29000213623044 a10.41,10.41 0 0 1 -2.88,2.3200000000000003 h0 a10.38,10.38 0 0 1 -4.54,1.25 c-5.55,0.23 -15.19,0.30000000000000004 -23.33,-1.29 c-11.05,-2.15 -19.34,-7.07 -25.59,-4.26 a9.25,9.25 0 0 0 -2,1.19 s-5.49,17.14 -4.65,28.81 c0.6500000000000001,-10.91 4.65,-23.37 4.65,-23.37 a9.25,9.25 0 0 1 2,-1.19 c6.26,-2.81 14.54,2.11 25.59,4.26 c8.14,1.58 17.77,1.51 23.33,1.29 a10.38,10.38 0 0 0 4.54,-1.25 h0 A10.41,10.41 0 0 0 565.9000015258789,261.76000213623047 l14.81,-17.09 A5.83,5.83 0 0 1 575.5300015258789,245.16000213623045 z" id="svg_41"/></g><path d="M140.64000152587892,367.65000213623046 a0.77,0.77 0 0 0 0.91,0.12000000000000001 A3.1,3.1 0 0 1 140.64000152587892,367.65000213623046 z" fill="url(#9c7f1c1e-55bc-40cd-85e2-0f597ed8a8ed)" id="svg_42"/><path d="M242.55000152587888,202.00000213623048 c-1.8,-0.52 -4.37,-1.37 -7.46,-2.45 a39.12,39.12 0 0 0 6.91,-13.92 l-0.26,0.1 c0.09000000000000002,-0.31000000000000005 0.18000000000000002,-0.6100000000000001 0.26,-0.93 c-5.93,2.41 -12.49,-1.6700000000000002 -16.67,-6.91 s-7,-11.74 -11.58,-16.56 a53,53 0 0 0 -6.14,-5.29 c-1.35,-1 -2.8,-2.13 -4.45,-2.18 c-2.67,-0.08000000000000002 -4.76,2.54 -7.33,3.31 a10,10 0 0 1 -5.11,-0.19000000000000003 c-6.63,-1.52 -13,-4.33 -19.77,-5.07 a23.17,23.17 0 0 0 -10.73,1.21 c-3.4,1.29 -4.95,3.8600000000000003 -7.7,5.92 c-3,2.21 -8.86,2.16 -12.35,2.55 a88.5,88.5 0 0 1 -12.76,0.53 a29.87,29.87 0 0 0 -7.34,0.27 c-5.07,1.11 -9.14,5.14 -12.94,9 a6.67,6.67 0 0 0 -2.14,3.35 a4.23,4.23 0 0 0 0,1.11 a7.21,7.21 0 0 0 0.51,2.95 a39,39 0 0 0 4.91,9.77 c1.55,2.22 3.36,4.3100000000000005 4.24,6.94 a13.47,13.47 0 0 1 0.6500000000000001,4 a29.09,29.09 0 0 1 -0.45,4.3 a54,54 0 0 1 -3.29,11.45 a20.8,20.8 0 0 0 -1.92,6 a9.56,9.56 0 0 0 0,1.28 c-0.25,6.6 6.41,11.35 7.7,17.91 a10.7,10.7 0 0 1 0.19000000000000003,1.6500000000000001 c-0.14,4.09 -2.47,8.09 -5.91,9.68 c0.30000000000000004,0.12000000000000001 0.6100000000000001,0.22000000000000003 0.92,0.32000000000000006 a8.34,8.34 0 0 1 -0.92,0.5 c0.6300000000000001,0.24000000000000002 1.27,0.45 1.92,0.6200000000000001 a44.6,44.6 0 0 0 -9.71,12 C92.26000152587892,286.76000213623047 13.900001525878906,328.95000213623047 13.900001525878906,328.95000213623047 l1.1600000000000001,0.6600000000000001 l-0.9400000000000001,0.6100000000000001 c-6.78,4.51 -22.69,17.66 -8.31,34.29 c0,0 11.23,-17.72 19.1,-25.27 c0.35000000000000003,-0.3400000000000001 0.7000000000000001,-0.6500000000000001 1,-0.9400000000000001 a2.3,2.3 0 0 1 0.30000000000000004,1.82 l51.52,-28.95 s18.31,-12.82 23.42,-15.71 a42.15,42.15 0 0 1 11.61,-5 l-0.6000000000000001,0.25 a23.52,23.52 0 0 1 5.91,-0.8400000000000001 c9.12,0.14 19,6.82 22.25,33.27 c4.36,35.42 2.34,41.81 0.9400000000000001,42.68 a2.5700000000000003,2.5700000000000003 0 0 1 -0.51,-0.09000000000000002 a0.8700000000000001,0.8700000000000001 0 0 0 0.14,0.1 a2.68,2.68 0 0 1 -0.56,-0.1 a0.8,0.8 0 0 0 0.7600000000000001,0.18000000000000002 a0.7100000000000001,0.7100000000000001 0 0 0 0.5700000000000001,-0.07 h0 a5.92,5.92 0 0 0 0.6900000000000002,0 q0,0.49000000000000005 -0.07,1 c-0.07,0 -0.41000000000000003,0.19000000000000003 0,0.21000000000000002 h0 c-0.11000000000000001,2 -0.1,4.17 0,6.44 c-4.53,0.25 -9.06,0.52 -13,0.7600000000000001 l0.35000000000000003,-1.87 l0.16000000000000003,-0.8400000000000001 c3.48,-0.28 6.78,-1.3 7.17,-4.12 c0.8500000000000001,-6.2 -7.66,-9.51 -14.9,-9.92 s-50.66,2.48 -50.66,2.48 s-6.51,8.43 14.14,11 q0.92,0.48000000000000004 1.9100000000000001,1 c8.09,4.61 19.06,13.1 24.32,17.28 l0.7300000000000001,0.5800000000000001 L110.14000152587892,391.76000213623047 c12.77,2.89 25.12,51.69 31.93,74 s21.71,21.5 34.06,18.19 c11.57,-3.1 13,-36.7 13.19,-40.92 v-0.43000000000000005 L209.9000015258789,468.02000213623046 l1.56,1.9300000000000002 q0.9,0.47000000000000003 1.78,0.8800000000000001 c15.58,7.41 32.79,-6.8 27.9,-23 c-4.95,-16.33 -12.63,-40.48 -17.75,-50.69 c-4.29,-8.55 -9.83,-22.75 -13.19,-31.64 a10.68,10.68 0 0 0 1.27,-0.6100000000000001 s-0.08000000000000002,-0.4 -0.21000000000000002,-1.13 l0.21000000000000002,-0.11000000000000001 s-5,-25.72 -5.22,-44 q0,-0.48000000000000004 0,-1 c0,-0.2 0,-0.4 0,-0.5900000000000001 c3.72,-0.8500000000000001 6.08,-1.18 6.08,-1.18 l0.07,-0.8 l-0.43000000000000005,0.09000000000000002 l2.07,-23.69 s7.6,-16.17 1.78,-22.9 a14.14,14.14 0 0 1 -3.41,-7 c-1,-6.19 0,-16.52 13.55,-25.1 c20.86,-13.23 29,-24 29,-24 S255.32000152587892,205.76000213623047 242.55000152587888,202.00000213623048 zm-41.43,16.44 V207.4900021362305 c3.87,-0.19000000000000003 7.82,0.26 11.71,0 a29.63,29.63 0 0 0 5.65,-0.9500000000000001 l0.9400000000000001,0.6500000000000001 A103,103 0 0 1 201.12000152587893,218.44000213623048 zM141.9700015258789,390.08000213623046 c1.53,1.06 3.07,2.16 4.58,3.27 c0.9400000000000001,5.4 1.77,9.21 1.83,9.48 A74.86,74.86 0 0 0 141.9700015258789,390.08000213623046 z" fill="url(#9ac4e148-2e83-4d81-ad56-620a328cd147)" id="svg_43" class=""/><path d="M175.0300015258789,381.08000213623046 l-0.9,4.890000000000001 l-0.6900000000000002,3.74 l-1.26,6.84 l-12.22,8.55 s-1.1,-0.9400000000000001 -2.92,-2.43 c-5,-4.12 -15.53,-12.48 -23.26,-17 a26,26 0 0 0 -6.39,-2.95 z" fill="#ffbdc6" id="svg_44"/><path d="M175.0300015258789,381.08000213623046 l-0.9,4.890000000000001 a38,38 0 0 1 -8.06,-0.41000000000000003 l-28.51,0.41000000000000003 c-1.35,-0.08000000000000002 -2.6100000000000003,-0.19000000000000003 -3.79,-0.31000000000000005 a26,26 0 0 0 -6.39,-2.95 z" opacity="0.1" id="svg_45"/><path d="M166.07000152587892,384.76000213623047 s14.26,2.44 15.07,-3.67 S173.81000152587893,371.76000213623047 166.9000015258789,371.3000021362305 S118.42000152587892,373.76000213623047 118.42000152587892,373.76000213623047 s-7.33,9.77 19.14,11.4 z" fill="#7679b4" id="svg_46"/><path d="M175.0300015258789,381.08000213623046 l-0.9,4.890000000000001 l-0.6900000000000002,3.74 l-1.26,6.84 l-12.22,8.55 s-1.1,-0.9400000000000001 -2.92,-2.43 c-5,-4.12 -15.53,-12.48 -23.26,-17 a26,26 0 0 0 -6.39,-2.95 z" opacity="0.1" id="svg_47" class=""/><path d="M175.0300015258789,381.08000213623046 l-0.9,4.890000000000001 a38,38 0 0 1 -8.06,-0.41000000000000003 l-28.51,0.41000000000000003 c-1.35,-0.08000000000000002 -2.6100000000000003,-0.19000000000000003 -3.79,-0.31000000000000005 a26,26 0 0 0 -6.39,-2.95 z" opacity="0.1" id="svg_48"/><path d="M166.07000152587892,384.76000213623047 s14.26,2.44 15.07,-3.67 S173.81000152587893,371.76000213623047 166.9000015258789,371.3000021362305 S118.42000152587892,373.76000213623047 118.42000152587892,373.76000213623047 s-7.33,9.77 19.14,11.4 z" opacity="0.1" id="svg_49"/><rect x="122.69000244140625" y="183.9499969482422" width="74.52999877929688" height="88.37999725341797" fill="#a66477" id="svg_50"/><rect x="122.69000244140625" y="183.9499969482422" width="74.52999877929688" height="88.37999725341797" opacity="0.1" id="svg_51" class="selected"/><path d="M35.33000152587891,335.26000213623047 c-1.23,0.31000000000000005 -2.79,1.49 -4.54,3.21 c-7.53,7.44 -18.27,24.89 -18.27,24.89 c-13.76,-16.38 1.47,-29.33 8,-33.78 c1.58,-1.08 2.64,-1.6600000000000001 2.64,-1.6600000000000001 z" fill="#f7ccc0" id="svg_52" class="" fill-opacity="1"/><path d="M174.2200015258789,211.85000213623044 s3.67,25.66 16.29,31.77 s-16.29,17.51 -16.29,17.51 l-39.51,-14.66 s22.4,-7.33 17.92,-28.92 z" fill="#d1a194" id="svg_53" class="" fill-opacity="1"/><path d="M131.9000015258789,366.21000213623046 l-0.9,4.890000000000001 l-0.6900000000000002,3.74 l-1.26,6.84 l-12.22,8.55 s-1.1,-0.9400000000000001 -2.92,-2.43 c-5,-4.12 -15.53,-12.48 -23.26,-17 a26,26 0 0 0 -6.39,-2.95 z" fill="#f7ccc0" id="svg_54" class="" fill-opacity="1"/><path d="M131.9000015258789,366.21000213623046 l-0.9,4.890000000000001 a38,38 0 0 1 -8.06,-0.41000000000000003 l-28.51,0.41000000000000003 c-1.35,-0.08000000000000002 -2.6100000000000003,-0.19000000000000003 -3.79,-0.31000000000000005 a26,26 0 0 0 -6.39,-2.95 z" opacity="0.1" id="svg_55"/><path d="M122.9000015258789,369.8800021362305 s14.26,2.44 15.07,-3.67 s-7.33,-9.37 -14.26,-9.77 s-48.47,2.44 -48.47,2.44 s-7.33,9.77 19.14,11.4 z" fill="#7679b4" id="svg_56"/><path d="M130.2700015258789,374.85000213623044 l-1.26,6.84 l-12.22,8.55 s-1.1,-0.9400000000000001 -2.92,-2.43 l16.16,-13.25 z" opacity="0.1" id="svg_57"/><path d="M210.9000015258789,468.0900021362305 q-0.8400000000000001,-0.41000000000000003 -1.7000000000000002,-0.8700000000000001 l-1.49,-1.9 l-19.68,-25 V440.76000213623047 c-0.13,4.15 -1.55,37.25 -12.61,40.3 c-11.81,3.26 -26.07,4.07 -32.58,-17.92 s-18.33,-70.05 -30.55,-72.9 l18.12,-14.870000000000001 s12,14 16.9,27.48 c-0.18000000000000002,-0.8600000000000001 -8.47,-39.57 -1.6300000000000001,-46.41 h59.46 s9.16,26.14 15.48,39.1 c4.9,10.06 12.25,33.84 17,49.93 C242.32000152587892,461.39000213623046 225.9000015258789,475.39000213623046 210.9000015258789,468.0900021362305 z" fill="#7679b4" id="svg_58"/><path d="M209.24000152587888,363.76000213623047 c-9.17,5.43 -49.49,3.22 -62.63,2.34 l-3.5700000000000003,-0.26 c-0.39000000000000007,0 0.06000000000000001,-0.22000000000000003 0.06000000000000001,-0.22000000000000003 l0.37000000000000005,-3.7 l9.77,-24.84 L205.5800015258789,306.76000213623047 c-1.06,3.19 -1.42,8.08 -1.33,13.69 C204.51000152587892,338.4300021362305 209.24000152587888,363.76000213623047 209.24000152587888,363.76000213623047 z" opacity="0.1" id="svg_59"/><path d="M209.24000152587888,362.5500021362305 c-9.17,5.43 -49.49,3.22 -62.63,2.34 l-3.5700000000000003,-0.26 l-0.5900000000000001,0 l0.6500000000000001,-0.17 l3.22,-0.8500000000000001 l6.92,-27.7 l52.34,-30.34 c-1.06,3.19 -1.42,8.08 -1.33,13.69 C204.51000152587892,337.21000213623046 209.24000152587888,362.5500021362305 209.24000152587888,362.5500021362305 z" fill="#f2f1f2" id="svg_60"/><path d="M204.25000152587893,319.22000213623045 c-10.64,2.45 -34.06,9.66 -43.06,27 c-6,11.58 -11,16.55 -14.57,18.63 l-3.5700000000000003,-0.26 l0.06000000000000001,-0.22000000000000003 l3.22,-0.8500000000000001 l6.92,-27.7 l52.34,-30.34 C204.51000152587892,308.76000213623047 204.1600015258789,313.6100021362305 204.25000152587893,319.22000213623045 z" opacity="0.1" id="svg_61"/><path d="M23.110001525878914,327.9300021362305 l12.22,7.33 c-1.23,0.31000000000000005 -2.79,1.49 -4.54,3.21 c-1,-3 -7.42,-7.12 -10.32,-8.88 C22.050001525878912,328.51000213623047 23.110001525878914,327.9300021362305 23.110001525878914,327.9300021362305 z" opacity="0.1" id="svg_62"/><path d="M140.9000015258789,365.10000213623044 a0.7300000000000001,0.7300000000000001 0 0 1 -0.8600000000000001,-0.11000000000000001 A2.94,2.94 0 0 0 140.9000015258789,365.10000213623044 z" opacity="0.1" id="svg_63"/><path d="M168.51000152587892,241.9900021362305 s-11,1.22 -18.74,-6.92 c0,0 -32.58,9.37 -43.58,30.55 s-85.94,62.72 -85.94,62.72 s13,7.33 11.81,11 l49.28,-28.51 s17.51,-12.63 22.4,-15.48 s31.77,-20.36 37.47,27.29 s0,42 0,42 s8.15,2.85 20,-20 s48.47,-28.1 48.47,-28.1 l2,-24 s7.27,-15.92 1.7000000000000002,-22.56 a14.1,14.1 0 0 1 -3.26,-6.890000000000001 c-0.93,-6.1 0,-16.27 13,-24.72 c20,-13 27.7,-23.62 27.7,-23.62 s0.41000000000000003,-7.74 -11.81,-11.4 s-61.91,-23.62 -61.91,-23.62 l-1.6300000000000001,6.92 l39.1,27.7 s-19.55,15.88 -35,15.48 C179.51000152587892,229.76000213623047 182.36000152587889,241.58000213623046 168.51000152587892,241.9900021362305 z" fill="#565388" id="svg_64" class="selected"/><path d="M176.06000152587893,223.02000213623046 a80,80 0 0 1 -2.25,-10 L152.2200015258789,218.76000213623047 a23.8,23.8 0 0 1 -0.49000000000000005,12.45 a23.22,23.22 0 0 0 24.33,-8.2 z" opacity="0.1" id="svg_65"/><circle cx="158.1300048828125" cy="207.57000732421875" r="23.219999313354492" fill="#f7ccc0" id="svg_66" class="" fill-opacity="1"/><path d="M170.4700015258789,154.76000213623047 c6.44,0.7300000000000001 12.57,3.5 18.91,5 a9.34,9.34 0 0 0 4.890000000000001,0.19000000000000003 c2.46,-0.7600000000000001 4.46,-3.34 7,-3.26 c1.57,0 3,1.12 4.26,2.15 a51.11,51.11 0 0 1 5.87,5.21 c4.37,4.75 7.09,11.15 11.08,16.31 s10.28,9.18 15.95,6.8100000000000005 c-3.85,15 -16.49,26.47 -30.15,27.4 c-5.45,0.37000000000000005 -11,-0.7600000000000001 -16.31,0.8400000000000001 a14.28,14.28 0 0 1 -4.12,1 c-3,0 -5.48,-2.79 -7.38,-5.5 c-4.44,-6.38 -8,-13.620000000000001 -13,-19.43 c-1.6500000000000001,-1.92 -3.6,-3.75 -5.93,-4.1 s-4.48,0.7600000000000001 -6.5600000000000005,1.84 c-3.43,1.78 -6.94,3.62 -9.6,6.66 s-4.34,7.59 -3.24,11.71 c0.5900000000000001,2.22 1.9500000000000002,4.22 2,6.55 c0,3.7 -3.22,6.41 -3.87,10 a38.6,38.6 0 0 0 -0.16000000000000003,4.5600000000000005 c-0.29000000000000004,4.94 -3.51,9 -6.890000000000001,12.09 c-1.31,1.21 -2.77,2.5 -3.15,4.37 c-0.26,1.27 0,2.62 -0.17,3.91 c-0.49000000000000005,3.21 -3.6900000000000004,4.83 -6.52,5.25 a18.9,18.9 0 0 1 -9.78,-1.1600000000000001 c4,-1.87 6.39,-7.2 5.47,-12 c-1.26,-6.61 -7.9,-11.35 -7.34,-18.09 a20.93,20.93 0 0 1 1.84,-5.95 a54.45,54.45 0 0 0 3.14,-11.28 a19.11,19.11 0 0 0 -0.19000000000000003,-9 c-0.8500000000000001,-2.59 -2.58,-4.65 -4.06,-6.84 a38.82,38.82 0 0 1 -4.7,-9.63 a6.75,6.75 0 0 1 -0.45,-3.18 a6.59,6.59 0 0 1 2,-3.3 c3.64,-3.81 7.54,-7.78 12.38,-8.88 a27.76,27.76 0 0 1 7,-0.27 a82.24,82.24 0 0 0 12.21,-0.52 c3.34,-0.39000000000000007 9,-0.3400000000000001 11.82,-2.52 c2.63,-2 4.12,-4.55 7.37,-5.83 A21.57,21.57 0 0 1 170.4700015258789,154.76000213623047 z" opacity="0.1" id="svg_67"/><path d="M183.38000152587892,394.52000213623046 s13.44,26.47 9.37,34.62 " opacity="0.1" id="svg_68"/><path d="M207.75000152587893,465.3200021362304 l-19.68,-25 V440.76000213623047 s-1.1400000000000001,-8.08 2.6100000000000003,-5.36 c8.21,5.94 21.35,15.68 21.63,17.36 S209.6500015258789,461.1800021362304 207.75000152587893,465.3200021362304 z" opacity="0.1" id="svg_69"/><g opacity="0.1" id="svg_70"><path d="M179.9000015258789,229.76000213623047 s1.6600000000000001,6.88 -3.71,10.32 c8.27,-1.42 8.63,-7.85 8.38,-10.65 A26.06,26.06 0 0 1 179.9000015258789,229.76000213623047 z" id="svg_71"/><path d="M25.150001525878906,326.71000213623046 s74.94,-41.54 85.94,-62.72 c7.890000000000001,-15.2 26.9,-24.31 37,-28.25 c-7.37,2.47 -32.17,11.94 -41.49,29.88 c-11,21.18 -85.94,62.72 -85.94,62.72 z" id="svg_72"/><path d="M194.4800015258789,226.53000213623045 c12.75,-4 24.94,-13.870000000000001 24.94,-13.870000000000001 l-39.1,-27.7 l0.8900000000000001,-3.8 l-3.74,-1.5 l-1.6300000000000001,6.92 l39.1,27.7 A94.35,94.35 0 0 1 194.4800015258789,226.53000213623045 z" id="svg_73"/><path d="M194.7300015258789,320.39000213623046 a96.88,96.88 0 0 1 15.33,-3.87 l0.07,-0.79 A103.76,103.76 0 0 0 194.7300015258789,320.39000213623046 z" id="svg_74"/><path d="M147.3400015258789,363.0600021362305 h-0.36000000000000004 a0.7300000000000001,0.7300000000000001 0 0 1 -0.8600000000000001,-0.11000000000000001 a3,3 0 0 0 0.8600000000000001,0.11000000000000001 c1.34,-0.78 3.35,-6.86 -0.8600000000000001,-42.06 c-4.5,-37.58 -22.16,-34.63 -31.83,-30.31 c9.88,-2.72 23.48,-0.37000000000000005 27.35,31.94 c4.21,35.2 2.2,41.29 0.8600000000000001,42.06 A9,9 0 0 0 147.3400015258789,363.0600021362305 z" id="svg_75"/><path d="M142.50000152587893,364.70000213623047 a3,3 0 0 1 -0.8600000000000001,-0.11000000000000001 A0.7300000000000001,0.7300000000000001 0 0 0 142.50000152587893,364.70000213623047 z" id="svg_76"/></g><path d="M170.4700015258789,153.97000213623045 c6.44,0.7300000000000001 12.57,3.5 18.91,5 a9.34,9.34 0 0 0 4.890000000000001,0.19000000000000003 c2.46,-0.7600000000000001 4.46,-3.34 7,-3.26 c1.57,0 3,1.12 4.26,2.15 a51.11,51.11 0 0 1 5.87,5.21 c4.37,4.75 7.09,11.15 11.08,16.31 s10.28,9.18 15.95,6.8100000000000005 c-3.85,15 -16.49,26.47 -30.15,27.4 c-5.45,0.37000000000000005 -11,-0.7600000000000001 -16.31,0.8400000000000001 a14.28,14.28 0 0 1 -4.12,1 c-3,0 -5.48,-2.79 -7.38,-5.5 c-4.44,-6.38 -8,-13.620000000000001 -13,-19.43 c-1.6500000000000001,-1.92 -3.6,-3.75 -5.93,-4.1 s-4.48,0.7600000000000001 -6.5600000000000005,1.84 c-3.43,1.78 -6.94,3.62 -9.6,6.66 s-4.34,7.59 -3.24,11.71 c0.5900000000000001,2.22 1.9500000000000002,4.22 2,6.55 c0,3.7 -3.22,6.41 -3.87,10 a38.6,38.6 0 0 0 -0.16000000000000003,4.5600000000000005 c-0.29000000000000004,4.94 -3.51,9 -6.890000000000001,12.09 c-1.31,1.21 -2.77,2.5 -3.15,4.37 c-0.26,1.27 0,2.62 -0.17,3.91 c-0.49000000000000005,3.21 -3.6900000000000004,4.83 -6.52,5.25 a18.9,18.9 0 0 1 -9.78,-1.1600000000000001 c4,-1.87 6.39,-7.2 5.47,-12 c-1.26,-6.61 -7.9,-11.35 -7.34,-18.09 a20.93,20.93 0 0 1 1.84,-5.95 a54.45,54.45 0 0 0 3.14,-11.28 a19.11,19.11 0 0 0 -0.19000000000000003,-9 c-0.8500000000000001,-2.59 -2.58,-4.65 -4.06,-6.84 a38.82,38.82 0 0 1 -4.7,-9.63 a6.75,6.75 0 0 1 -0.45,-3.18 a6.59,6.59 0 0 1 2,-3.3 c3.64,-3.81 7.54,-7.78 12.38,-8.88 a27.76,27.76 0 0 1 7,-0.27 a82.24,82.24 0 0 0 12.21,-0.52 c3.34,-0.39000000000000007 9,-0.3400000000000001 11.82,-2.52 c2.63,-2 4.12,-4.55 7.37,-5.83 A21.57,21.57 0 0 1 170.4700015258789,153.97000213623045 z" fill="#a66477" id="svg_77"/><path d="M833.5000015258789,101.85000213623047 h0 c0,-0.13 0,-0.25 0,-0.37000000000000005 s0,-0.26 -0.06000000000000001,-0.38000000000000006 h-0.16000000000000003 c0,-0.27 0,-0.54 0,-0.8300000000000001 c-0.4,-9.27 -13.22,-29 -18.36,-23.24 c-4.5,5.06 2.29,17.86 5.75,23.62 l0.31000000000000005,0.52 l-0.17,-0.11000000000000001 s-14.31,42.68 -16,44.34 s-13.47,35.22 -29,39 c-3.07,0.7300000000000001 -5.62,1.3900000000000001 -7.76,2 l0.17,-0.5700000000000001 c1,-3.27 2.23,-6.36 2.73,-10 s0,-8.05 -1.84,-9.82 c-0.9,-0.8800000000000001 -2,-1 -2.74,-2.4 a11.08,11.08 0 0 1 -0.7600000000000001,-3.85 l-1.32,-16.18 l0.92,-0.28 c5.5600000000000005,-1.78 10.95,-6 11.58,-11.68 a6,6 0 0 1 -0.5900000000000001,0.19000000000000003 a10.13,10.13 0 0 0 0.17,-1 c-4.67,1.84 -9,-3 -13.5,-5.17 c-7.41,-3.63 -15.88,-0.21000000000000002 -23.53,0.6200000000000001 c-8.67,0.9500000000000001 -16.9,-2.6500000000000004 -25.76,-2 c-4.82,0.37000000000000005 -10.18,3.64 -9.92,8.39 c0.15000000000000002,2.6100000000000003 2,4.82 2.7600000000000002,7.32 c1.92,6.05 -2.35,12.12 -6.09,17.28 c-2.46,3.39 -4.82,7.52 -5.24,11.5 c-8.61,-9 -17.92,-19.4 -19,-23.31 L651.1800015258789,102.76000213623047 s-0.5900000000000001,0.6300000000000001 -1.54,1.56 c-0.15000000000000002,-0.46 -0.33000000000000007,-1 -0.53,-1.54 c-3.18,-8.91 -12.18,-30.5 -23.59,-26.54 s4.73,26.09 11.75,34.91 l1,1.22 a3.16,3.16 0 0 1 -1.78,-0.08000000000000002 l27.78,47.65 s5.05,9.12 9.68,11.6 c0,0 34.51,43.51 34.93,52.21 S724.4000015258789,255.66000213623045 724.4000015258789,255.66000213623045 s5.05,37.71 -3.79,44.34 h0.11000000000000001 l0.07,0 H720.9000015258789 l0.1,0 l0.2,0 l0.13,0 l0.13,0 l0.17,0 l0.14,0 l0.2,0 l0.1,0 c-0.42000000000000004,0.41000000000000003 -0.8500000000000001,0.8600000000000001 -1.29,1.35 c-6.55,7.26 -14.92,22.82 -3.48,49.28 c16.83,39 19.36,54.28 19.36,54.28 s-32,1.6600000000000001 -38.3,2.9 c-5.58,1.1 -27.27,1.87 -32.23,2 c-1.77,-2.06 -7,-6.62 -14.06,0 c-8.84,8.29 -15.15,36 -15.15,36 s-3.37,22.38 8,16.57 c0,0 13.47,-18.65 17.25,-19.48 c1.8800000000000001,-0.41000000000000003 3.87,-3.18 5.39,-5.85 l0.08000000000000002,0.05000000000000001 h0 c0.09000000000000002,0 0.46,-0.2 1.06,-0.44000000000000006 h0 c2.8,-1.11 10.51,-3.7800000000000002 16.59,-2.45 c3.33,0.7300000000000001 17.61,0.9 32.58,0.8600000000000001 c-3.38,8.1 -9.44,29 -9.44,29 S705.9000015258789,483.5600021362304 714.3000015258789,482.76000213623047 c6,-0.5900000000000001 15.2,-15.92 20,-24.67 c3.48,-2.55 13.45,-11.69 20.82,-11 l49.66,-19.06 s11.78,-6.63 5.47,-28.59 c-5,-17.46 -19.23,-53.2 -24.85,-67.13 h0 l-0.17,-0.36000000000000004 c-1.36,-3.37 -2.18,-5.37 -2.18,-5.37 h0 a82.19,82.19 0 0 1 -4.51,-19.71 c-0.05000000000000001,-0.53 -0.09000000000000002,-1.07 -0.13,-1.6 a8.84,8.84 0 0 0 1.9500000000000002,-1.13 s-4.63,-46.82 0,-51.8 l0,0 h0 l0.08000000000000002,-0.09000000000000002 v0 l0,-0.06000000000000001 h0 l0.08000000000000002,-0.1 h0 l0.18000000000000002,-0.23 h0 l0.22000000000000003,-0.28 l0,0 c0.25,-0.33000000000000007 0.55,-0.7400000000000001 0.8900000000000001,-1.24 h0 c2.6500000000000004,-3.88 7.59,-12.74 6.17,-23.2 v0 q-0.09000000000000002,-0.6800000000000002 -0.22000000000000003,-1.37 h0 a28.57,28.57 0 0 0 -2.88,-8.12 a22.52,22.52 0 0 1 -0.37000000000000005,-3.21 c0,-0.6100000000000001 0,-1.28 0,-2 v-0.12000000000000001 q0,-0.29000000000000004 0,-0.5800000000000001 v-0.14 c0,-0.47000000000000003 0.08000000000000002,-1 0.15000000000000002,-1.44 l0,-0.18000000000000002 q0,-0.27 0.09000000000000002,-0.55 l0,-0.23 c0,-0.18000000000000002 0.08000000000000002,-0.36000000000000004 0.12000000000000001,-0.54 l0,-0.19000000000000003 c0.06000000000000001,-0.24000000000000002 0.12000000000000001,-0.48000000000000004 0.2,-0.7200000000000001 l0,-0.12000000000000001 q0.09000000000000002,-0.30000000000000004 0.2,-0.5900000000000001 l0.09000000000000002,-0.23 l0.2,-0.48000000000000004 l0.1,-0.24000000000000002 c0.08000000000000002,-0.18000000000000002 0.17,-0.36000000000000004 0.26,-0.54 l0.07,-0.15000000000000002 q0.18000000000000002,-0.33000000000000007 0.38000000000000006,-0.6500000000000001 l0.11000000000000001,-0.17 l0.33000000000000007,-0.47000000000000003 l0.16000000000000003,-0.21000000000000002 l0.35000000000000003,-0.42000000000000004 l0.16000000000000003,-0.18000000000000002 c0.18000000000000002,-0.19000000000000003 0.36000000000000004,-0.38000000000000006 0.56,-0.56 c5.47,-5 29.88,-41.85 29.88,-41.85 s5.890000000000001,-8.29 5.890000000000001,-13.67 C824.1400015258789,147.10000213623044 834.5500015258789,112.40000213623046 833.5000015258789,101.85000213623047 zM767.970001525879,411.6000021362305 c-0.6000000000000001,-5.68 -1.2,-12.72 -1.75,-20 l9.52,14.84 S774.840001525879,410.9600021362305 767.970001525879,411.6000021362305 z" fill="url(#2bd42fb4-2e8b-436b-a616-1dc6bfdc374d)" id="svg_78"/><path d="M668.7100015258789,408.4600021362305 s-5.7,-9 -14.26,-0.81 s-14.66,35.43 -14.66,35.43 s-3.26,22 7.74,16.29 c0,0 13,-18.33 16.7,-19.14 s7.74,-11 7.74,-11 z" fill="#493545" id="svg_79"/><path d="M729.8000015258789,430.4500021362305 s-7.74,-3.67 -10.18,-0.81 s-10.59,31.36 -10.59,31.36 s-2.44,18.74 5.7,17.92 S737.1300015258789,448.76000213623047 737.1300015258789,448.76000213623047 z" fill="#493545" id="svg_80"/><path d="M729.8000015258789,430.4500021362305 s-7.74,-3.67 -10.18,-0.81 s-10.59,31.36 -10.59,31.36 s-2.44,18.74 5.7,17.92 S737.1300015258789,448.76000213623047 737.1300015258789,448.76000213623047 z" opacity="0.05" id="svg_81"/><path d="M756.6800015258789,375.0600021362305 l17.51,27.29 s-1.22,6.11 -11.81,4.890000000000001 l-36.25,22.81 s-3.15,27.77 6.92,25.25 c1.6300000000000001,-0.41000000000000003 13,-12.22 21.18,-11.4 L802.3000015258789,425.16000213623045 s11.4,-6.52 5.29,-28.1 s-26.31,-71.62 -26.31,-71.62 l-31.93,17.86 z" fill="#3e3d77" id="svg_82"/><path d="M756.6800015258789,375.0600021362305 l17.51,27.29 s-1.22,6.11 -11.81,4.890000000000001 l-36.25,22.81 s-3.15,27.77 6.92,25.25 c1.6300000000000001,-0.41000000000000003 13,-12.22 21.18,-11.4 L802.3000015258789,425.16000213623045 s11.4,-6.52 5.29,-28.1 s-26.31,-71.62 -26.31,-71.62 l-31.93,17.86 z" opacity="0.05" id="svg_83"/><path d="M767.6800015258789,415.3800021362305 c2.44,15.48 -11.4,16.7 -11.4,16.7 s-62.32,1.22 -69.65,-0.41000000000000003 s-17.11,2.85 -17.11,2.85 c-12.63,-7.74 -2.44,-26.88 -2.44,-26.88 s26.07,-0.81 32.18,-2 S736.3200015258789,402.76000213623047 736.3200015258789,402.76000213623047 s-2.44,-15.07 -18.74,-53.35 c-11.07,-26 -3,-41.3 3.37,-48.43 a26.82,26.82 0 0 1 5.59,-4.92 l50.1,2.44 a65,65 0 0 0 0.28,7.57 a80.62,80.62 0 0 0 6.65,25 c-2.85,0 -21.18,17.11 -21.18,17.11 S765.230001525879,399.91000213623045 767.6800015258789,415.3800021362305 z" fill="#3e3d77" id="svg_84"/><path d="M670.7400015258789,409.27000213623046 s26.07,-0.81 32.18,-2 s37.06,-2.85 37.06,-2.85 s-2.44,-15.07 -18.74,-53.35 c-11.07,-26 -3,-41.3 3.37,-48.43 a26.82,26.82 0 0 1 5.59,-4.92 l46.42,2.26 c0,-0.48000000000000004 0,-1 0,-1.45 l-50.1,-2.44 a26.82,26.82 0 0 0 -5.59,4.92 c-6.34,7.14 -14.44,22.43 -3.37,48.43 C733.9000015258789,387.6900021362305 736.3200015258789,402.76000213623047 736.3200015258789,402.76000213623047 s-31,1.6300000000000001 -37.06,2.85 s-32.18,2 -32.18,2 S656.9000015258789,426.76000213623047 669.5200015258789,434.53000213623045 c0,0 0.38000000000000006,-0.18000000000000002 1,-0.44000000000000006 C662.1300015258789,425.4600021362305 670.7400015258789,409.27000213623046 670.7400015258789,409.27000213623046 z" opacity="0.1" id="svg_85"/><rect x="720.02001953125" y="146.57000732421875" width="25.25" height="63.939998626708984" fill="#493545" id="svg_86"/><rect x="720.02001953125" y="146.57000732421875" width="25.25" height="63.939998626708984" opacity="0.1" id="svg_87"/><path d="M759.7100015258789,137.19000213623048 c0.8700000000000001,0.24000000000000002 1.85,0.27 2.44,1.47 a9,9 0 0 1 0.5900000000000001,3 l1.59,19.76 a11,11 0 0 0 0.7400000000000001,3.7800000000000002 c0.6700000000000002,1.34 1.78,1.5 2.6500000000000004,2.36 c1.75,1.7400000000000002 2.26,6.1 1.78,9.65 s-1.6900000000000002,6.59 -2.64,9.8 c-1.36,4.6 -2.26,9.77 -4.17,13.65 s-5.38,6 -7.62,2.74 s-1.94,-9.84 -2.36,-15.23 c-0.7000000000000001,-9 -4.21,-16.76 -4.45,-25.82 c-0.2,-7.33 1.77,-14.17 3,-21.12 c0.8800000000000001,-4.77 0.93,-10.56 2.21,-14.85 C754.5400015258789,131.48000213623047 756.5800015258789,136.33000213623046 759.7100015258789,137.19000213623048 z" fill="#493545" id="svg_88"/><path d="M759.7100015258789,137.19000213623048 c0.8700000000000001,0.24000000000000002 1.85,0.27 2.44,1.47 a9,9 0 0 1 0.5900000000000001,3 l1.59,19.76 a11,11 0 0 0 0.7400000000000001,3.7800000000000002 c0.6700000000000002,1.34 1.78,1.5 2.6500000000000004,2.36 c1.75,1.7400000000000002 2.26,6.1 1.78,9.65 s-1.6900000000000002,6.59 -2.64,9.8 c-1.36,4.6 -2.26,9.77 -4.17,13.65 s-5.38,6 -7.62,2.74 s-1.94,-9.84 -2.36,-15.23 c-0.7000000000000001,-9 -4.21,-16.76 -4.45,-25.82 c-0.2,-7.33 1.77,-14.17 3,-21.12 c0.8800000000000001,-4.77 0.93,-10.56 2.21,-14.85 C754.5400015258789,131.48000213623047 756.5800015258789,136.33000213623046 759.7100015258789,137.19000213623048 z" opacity="0.1" id="svg_89"/><path d="M652.8200015258789,107.2818203830719 l-9.77,8.15 s-1.1600000000000001,-1.36 -2.89,-3.56 c-6.79,-8.67 -22.4,-30.42 -11.37,-34.31 s19.75,17.32 22.83,26.08 C652.4000015258789,105.86182038307189 652.8200015258789,107.2818203830719 652.8200015258789,107.2818203830719 z" fill="#a57e74" id="svg_90" class="" fill-opacity="1"/><path d="M829.1800015258789,106.25000213623048 c-4.07,6.11 -9.77,0 -9.77,0 s-0.7300000000000001,-1.09 -1.7600000000000002,-2.85 c-3.35,-5.67 -9.92,-18.24 -5.57,-23.22 c5,-5.69 17.39,13.73 17.77,22.84 A5.42,5.42 0 0 1 829.1800015258789,106.25000213623048 z" fill="#a57e74" id="svg_91" class="" fill-opacity="1"/><path d="M728.980001525879,172.2300021362305 s8.15,26.07 5.7,33.8 S752.2000015258789,222.76000213623047 752.2000015258789,222.76000213623047 h22.81 s8.15,-16.7 6.11,-21.59 s-19.55,-8.55 -19.55,-8.55 s-10.18,0 -9.77,-27.29 z" fill="#937067" id="svg_92" class="" fill-opacity="1"/><path d="M652.8200015258789,109.10000213623047 l-9.77,8.15 s-1.1600000000000001,-1.36 -2.89,-3.56 c3.55,-0.6300000000000001 9.06,-5.8100000000000005 11.47,-8.23 C652.4000015258789,107.68000213623046 652.8200015258789,109.10000213623047 652.8200015258789,109.10000213623047 z" opacity="0.1" id="svg_93"/><path d="M829.1800015258789,106.25000213623048 c-4.07,6.11 -9.77,0 -9.77,0 s-0.7300000000000001,-1.09 -1.7600000000000002,-2.85 l0.13,-0.41000000000000003 c2.64,1.8900000000000001 10.85,0.28 12.07,0 A5.42,5.42 0 0 1 829.1800015258789,106.25000213623048 z" opacity="0.1" id="svg_94"/><path d="M776.9000015258789,306.0600021362305 c-12.6,5.75 -53.54,-4.49 -56,-5.1 a26.82,26.82 0 0 1 5.59,-4.92 l50.1,2.44 A65,65 0 0 0 776.9000015258789,306.0600021362305 z" opacity="0.1" id="svg_95"/><path d="M734.2800015258789,194.63000213623047 s-9.77,3.26 -23.62,-9.37 c0,0 -31,-30.55 -33,-37.88 l-24,-42 s-10.18,11 -14.26,9.37 l26.88,46.84 s4.890000000000001,9 9.37,11.4 c0,0 33.4,42.77 33.8,51.32 S724.5000015258789,255.76000213623047 724.5000015258789,255.76000213623047 s4.890000000000001,37.06 -3.67,43.58 c0,0 47.65,12.22 57.83,4.07 c0,0 -4.48,-46 0,-50.91 c0,0 13.85,-16.29 4.48,-34.21 c0,0 -2,-9.77 3.26,-14.66 s28.92,-41.14 28.92,-41.14 s5.7,-8.15 5.7,-13.44 c0,0 10.59,-35.84 9,-45.21 c0,0 -9.37,2 -12.22,0 c0,0 -13.85,42 -15.48,43.58 s-13,34.62 -28.1,38.29 s-17.51,5.29 -17.51,5.29 s29.32,18.33 15.07,26.47 S734.2800015258789,194.63000213623047 734.2800015258789,194.63000213623047 z" fill="#ffaac4" id="svg_96"/><path d="M752.7900015258789,178.50000213623048 a77.83,77.83 0 0 1 -0.5900000000000001,-11.57 l-22.81,6.92 a30.76,30.76 0 0 1 1.4300000000000002,4.68 c2.6100000000000003,1.15 6.13,3.87 9.16,3.87 A20.77,20.77 0 0 0 752.7900015258789,178.50000213623048 z" opacity="0.1" id="svg_97"/><circle cx="739.5700073242188" cy="160.00999450683594" r="21.18000030517578" fill="#a57e74" id="svg_98" class="" fill-opacity="1"/><path d="M714.3700015258789,127.38000213623047 c-4.66,0.36000000000000004 -9.86,3.58 -9.6,8.25 c0.14,2.5700000000000003 1.9,4.74 2.67,7.2 c1.85,5.95 -2.27,11.92 -5.890000000000001,17 s-7,11.81 -3.9,17.19 a42.39,42.39 0 0 0 2.8600000000000003,3.73 c3.83,5.17 3.7800000000000002,12.15 5.48,18.36 a32.21,32.21 0 0 0 37.84,23 a20.14,20.14 0 0 1 -4.25,-13.620000000000001 c0.23,-3.56 1.3800000000000001,-7.28 0,-10.57 c-1.78,-4.23 -7,-5.9 -9.69,-9.6 s-2.51,-8.83 -1.21,-13.24 s3.55,-8.5 4.63,-13 a39.16,39.16 0 0 1 1,-3.89 c1.8800000000000001,-5.34 7.5,-8.44 13,-9.77 s11.28,-1.4100000000000001 16.65,-3.16 s10.59,-5.85 11.21,-11.48 c-4.52,1.81 -8.71,-2.91 -13.07,-5.08 c-7.18,-3.56 -15.37,-0.21000000000000002 -22.77,0.6100000000000001 C730.9000015258789,130.25000213623048 722.9000015258789,126.76000213623047 714.3700015258789,127.38000213623047 z" opacity="0.1" id="svg_99"/><path d="M713.9600015258789,126.57000213623047 c-4.66,0.36000000000000004 -9.86,3.58 -9.6,8.25 c0.14,2.5700000000000003 1.9,4.74 2.67,7.2 c1.85,5.95 -2.27,11.92 -5.890000000000001,17 s-7,11.81 -3.9,17.19 a42.39,42.39 0 0 0 2.8600000000000003,3.73 c3.83,5.17 3.7800000000000002,12.15 5.48,18.36 a32.21,32.21 0 0 0 37.84,23 a20.14,20.14 0 0 1 -4.25,-13.620000000000001 c0.23,-3.56 1.3800000000000001,-7.28 0,-10.57 c-1.78,-4.23 -7,-5.9 -9.69,-9.6 s-2.51,-8.83 -1.21,-13.24 s3.55,-8.5 4.63,-13 a39.16,39.16 0 0 1 1,-3.89 c1.8800000000000001,-5.34 7.5,-8.44 13,-9.77 s11.28,-1.4100000000000001 16.65,-3.16 s10.59,-5.85 11.21,-11.48 c-4.52,1.81 -8.71,-2.91 -13.07,-5.08 c-7.18,-3.56 -15.37,-0.21000000000000002 -22.77,0.6100000000000001 C730.5100015258789,129.43000213623046 722.5400015258789,125.90000213623046 713.9600015258789,126.57000213623047 z" fill="#493545" id="svg_100"/><path d="M760.5500015258789,207.06000213623048 s8.48,7.57 10.15,10.91 " opacity="0.1" id="svg_101"/><path d="M778.9000015258789,252.27000213623046 s-10.59,0 -15.48,1.22 s-16.7,0 -16.7,0 " opacity="0.1" id="svg_102"/><g opacity="0.1" id="svg_103"><path d="M771.7500015258789,217.44000213623048 a10.18,10.18 0 0 1 -2.93,1.12 a11.2,11.2 0 0 0 7.82,-1.12 c14.26,-8.15 -15.07,-26.47 -15.07,-26.47 h-4.890000000000001 S786.0100015258789,209.3000021362305 771.7500015258789,217.44000213623048 z" id="svg_104"/><path d="M830.090001525879,104.55000213623046 c0,-0.26 -0.06000000000000001,-0.51 -0.1,-0.7400000000000001 a47.84,47.84 0 0 1 -5.07,0.77 A22.46,22.46 0 0 0 830.090001525879,104.55000213623046 z" id="svg_105"/><path d="M725.730001525879,299.3100021362305 c8.55,-6.52 3.67,-43.58 3.67,-43.58 s-14.66,-22.81 -15.07,-31.36 s-33.8,-51.32 -33.8,-51.32 c-4.48,-2.44 -9.37,-11.4 -9.37,-11.4 s-27.7,-45.21 -31.77,-46.84 l26.88,46.84 s4.890000000000001,9 9.37,11.4 c0,0 33.4,42.77 33.8,51.32 S724.5000015258789,255.76000213623047 724.5000015258789,255.76000213623047 s4.890000000000001,37.06 -3.67,43.58 c0,0 29.29,7.51 46.85,6.83 C750.0800015258789,305.5500021362305 725.730001525879,299.3100021362305 725.730001525879,299.3100021362305 z" id="svg_106"/><path d="M734.5200015258789,194.95000213623047 l-0.24000000000000002,-0.31000000000000005 a6.44,6.44 0 0 1 -0.8500000000000001,0.19000000000000003 C733.8100015258789,194.88000213623047 734.1700015258789,194.9200021362305 734.5200015258789,194.95000213623047 z" id="svg_107"/></g><g opacity="0.1" id="svg_108"><path d="M829.9900015258789,103.76000213623047 l-0.25,0.05000000000000001 c-0.43000000000000005,12.51 -9.11,41.9 -9.11,41.9 c0,5.29 -5.7,13.44 -5.7,13.44 s-23.62,36.25 -28.92,41.14 s-3.26,14.66 -3.26,14.66 l0.05000000000000001,0.1 c-0.16000000000000003,-3.29 0.24000000000000002,-8.39 3.6100000000000003,-11.51 c5.29,-4.890000000000001 28.92,-41.14 28.92,-41.14 s5.7,-8.15 5.7,-13.44 C821.0300015258789,149.02000213623046 831.6200015258789,113.18000213623046 829.9900015258789,103.76000213623047 z" id="svg_109"/><path d="M778.2700015258789,249.21000213623046 c0.6100000000000001,3.46 0.2,-0.2 0.41000000000000003,3.26 c0,0 10,-11.73 7.27,-26.23 C786.7700015258789,239.20000213623047 778.2700015258789,249.21000213623046 778.2700015258789,249.21000213623046 z" id="svg_110"/></g><ellipse cx="469.7900085449219" cy="620.4400024414062" rx="427.6700134277344" ry="41.08000183105469" fill="#6c63ff" opacity="0.1" id="svg_111"/><path d="M304.0100015258789,578.7600021362305 s-14.56,-49.45 2.73,-85.84 a78.1,78.1 0 0 0 6.32,-49 a131.35,131.35 0 0 0 -6.94,-23 " fill="none" stroke="#535461" stroke-miterlimit="10" stroke-width="2" id="svg_112"/><path d="M316.9000015258789,397.9400021362304 c0,6.06 -11,23.63 -11,23.63 s-11,-17.57 -11,-23.63 a11,11 0 1 1 21.94,0 z" fill="#6c63ff" id="svg_113"/><path d="M335.0100015258789,431.5000021362305 c-3.29,5.09 -22.05,13.870000000000001 -22.05,13.870000000000001 s0.3400000000000001,-20.71 3.63,-25.8 a11,11 0 1 1 18.42,11.93 z" fill="#6c63ff" id="svg_114"/><path d="M334.2200015258789,488.8700021362305 c-5.41,2.73 -26,0.8400000000000001 -26,0.8400000000000001 s10.75,-17.71 16.16,-20.44 a11,11 0 1 1 9.88,19.59 z" fill="#6c63ff" id="svg_115"/><path d="M323.8500015258789,532.1300021362305 c-4.87,3.6 -25.53,5.23 -25.53,5.23 s7.6,-19.27 12.48,-22.88 a11,11 0 0 1 13,17.64 z" fill="#6c63ff" id="svg_116"/><path d="M289.9000015258789,446.55000213623043 c4.35,4.22 24.6,8.6 24.6,8.6 s-5,-20.11 -9.31,-24.34 A11,11 0 1 0 289.9000015258789,446.55000213623043 z" fill="#6c63ff" id="svg_117"/><path d="M278.4300015258789,497.3100021362304 c5.41,2.73 26,0.8400000000000001 26,0.8400000000000001 S293.7200015258789,480.4400021362304 288.31000152587893,477.76000213623047 a11,11 0 0 0 -9.88,19.59 z" fill="#6c63ff" id="svg_118"/><path d="M274.0300015258789,548.1700021362304 c4.87,3.6 25.53,5.23 25.53,5.23 s-7.6,-19.27 -12.48,-22.88 a11,11 0 1 0 -13,17.64 z" fill="#6c63ff" id="svg_119"/><path d="M316.9000015258789,397.9400021362304 c0,6.06 -11,23.63 -11,23.63 s-11,-17.57 -11,-23.63 a11,11 0 1 1 21.94,0 z" fill="#6c63ff" opacity="0.1" id="svg_120"/><path d="M335.0100015258789,431.5000021362305 c-3.29,5.09 -22.05,13.870000000000001 -22.05,13.870000000000001 s0.3400000000000001,-20.71 3.63,-25.8 a11,11 0 1 1 18.42,11.93 z" fill="#6c63ff" opacity="0.1" id="svg_121"/><path d="M334.2200015258789,488.8700021362305 c-5.41,2.73 -26,0.8400000000000001 -26,0.8400000000000001 s10.75,-17.71 16.16,-20.44 a11,11 0 1 1 9.88,19.59 z" fill="#6c63ff" opacity="0.1" id="svg_122"/><path d="M323.8500015258789,532.1300021362305 c-4.87,3.6 -25.53,5.23 -25.53,5.23 s7.6,-19.27 12.48,-22.88 a11,11 0 0 1 13,17.64 z" fill="#6c63ff" opacity="0.1" id="svg_123"/><path d="M289.9000015258789,446.55000213623043 c4.35,4.22 24.6,8.6 24.6,8.6 s-5,-20.11 -9.31,-24.34 A11,11 0 1 0 289.9000015258789,446.55000213623043 z" fill="#6c63ff" opacity="0.1" id="svg_124"/><path d="M278.4300015258789,497.3100021362304 c5.41,2.73 26,0.8400000000000001 26,0.8400000000000001 S293.7200015258789,480.4400021362304 288.31000152587893,477.76000213623047 a11,11 0 0 0 -9.88,19.59 z" fill="#6c63ff" opacity="0.1" id="svg_125"/><path d="M274.0300015258789,548.1700021362304 c4.87,3.6 25.53,5.23 25.53,5.23 s-7.6,-19.27 -12.48,-22.88 a11,11 0 1 0 -13,17.64 z" fill="#6c63ff" opacity="0.1" id="svg_126"/><path d="M598.6500015258789,579.4700021362305 s-14.56,-49.45 2.73,-85.84 a78.1,78.1 0 0 0 6.32,-49 a131.35,131.35 0 0 0 -6.94,-23 " fill="none" stroke="#535461" stroke-miterlimit="10" stroke-width="2" id="svg_127"/><path d="M611.5200015258789,398.64000213623046 c0,6.06 -11,23.63 -11,23.63 s-11,-17.57 -11,-23.63 a11,11 0 0 1 21.94,0 z" fill="#6c63ff" id="svg_128"/><path d="M629.6600015258789,432.2000021362305 c-3.29,5.09 -22.05,13.870000000000001 -22.05,13.870000000000001 s0.3400000000000001,-20.71 3.63,-25.8 a11,11 0 1 1 18.42,11.93 z" fill="#6c63ff" id="svg_129"/><path d="M628.9000015258789,489.5700021362304 c-5.41,2.73 -26,0.8400000000000001 -26,0.8400000000000001 s10.75,-17.71 16.16,-20.44 A11,11 0 1 1 628.9000015258789,489.5700021362304 z" fill="#6c63ff" id="svg_130"/><path d="M618.4900015258789,532.8300021362305 c-4.87,3.6 -25.53,5.23 -25.53,5.23 s7.6,-19.27 12.48,-22.88 a11,11 0 0 1 13,17.64 z" fill="#6c63ff" id="svg_131"/><path d="M584.5600015258789,447.2500021362305 c4.35,4.22 24.6,8.6 24.6,8.6 s-5,-20.11 -9.31,-24.34 a11,11 0 1 0 -15.29,15.74 z" fill="#6c63ff" id="svg_132"/><path d="M573.0700015258789,498.01000213623047 c5.41,2.73 26,0.8400000000000001 26,0.8400000000000001 s-10.75,-17.71 -16.16,-20.44 a11,11 0 0 0 -9.88,19.59 z" fill="#6c63ff" id="svg_133"/><path d="M568.6800015258789,548.8700021362305 c4.87,3.6 25.53,5.23 25.53,5.23 s-7.6,-19.27 -12.48,-22.88 a11,11 0 0 0 -13,17.64 z" fill="#6c63ff" id="svg_134"/><path d="M611.5200015258789,398.64000213623046 c0,6.06 -11,23.63 -11,23.63 s-11,-17.57 -11,-23.63 a11,11 0 0 1 21.94,0 z" fill="#6c63ff" opacity="0.1" id="svg_135"/><path d="M629.6600015258789,432.2000021362305 c-3.29,5.09 -22.05,13.870000000000001 -22.05,13.870000000000001 s0.3400000000000001,-20.71 3.63,-25.8 a11,11 0 1 1 18.42,11.93 z" fill="#6c63ff" opacity="0.1" id="svg_136"/><path d="M628.9000015258789,489.5700021362304 c-5.41,2.73 -26,0.8400000000000001 -26,0.8400000000000001 s10.75,-17.71 16.16,-20.44 A11,11 0 1 1 628.9000015258789,489.5700021362304 z" fill="#6c63ff" opacity="0.1" id="svg_137"/><path d="M618.4900015258789,532.8300021362305 c-4.87,3.6 -25.53,5.23 -25.53,5.23 s7.6,-19.27 12.48,-22.88 a11,11 0 0 1 13,17.64 z" fill="#6c63ff" opacity="0.1" id="svg_138"/><path d="M584.5600015258789,447.2500021362305 c4.35,4.22 24.6,8.6 24.6,8.6 s-5,-20.11 -9.31,-24.34 a11,11 0 1 0 -15.29,15.74 z" fill="#6c63ff" opacity="0.1" id="svg_139"/><path d="M573.0700015258789,498.01000213623047 c5.41,2.73 26,0.8400000000000001 26,0.8400000000000001 s-10.75,-17.71 -16.16,-20.44 a11,11 0 0 0 -9.88,19.59 z" fill="#6c63ff" opacity="0.1" id="svg_140"/><path d="M568.6800015258789,548.8700021362305 c4.87,3.6 25.53,5.23 25.53,5.23 s-7.6,-19.27 -12.48,-22.88 a11,11 0 0 0 -13,17.64 z" fill="#6c63ff" opacity="0.1" id="svg_141"/><path d="M669.9000015258789,15.31000213623048 h-6.28 a4.4,4.4 0 1 0 0,-8.79 H612.7000015258789 a4.4,4.4 0 0 0 0,8.79 h6.28 a4.4,4.4 0 0 0 0,8.79 h-8.79 a4.4,4.4 0 1 0 0,8.79 h50.88 a4.4,4.4 0 1 0 0,-8.79 H669.9000015258789 a4.4,4.4 0 0 0 0,-8.79 z" fill="#dee3f3" opacity="0.5" id="svg_142"/><path d="M375.6800015258789,40.95000213623047 H370.9000015258789 a3.35,3.35 0 1 0 0,-6.69 H332.1800015258789 a3.35,3.35 0 0 0 0,6.69 h4.78 a3.35,3.35 0 1 0 0,6.69 h-6.69 a3.35,3.35 0 1 0 0,6.69 h38.72 a3.35,3.35 0 1 0 0,-6.69 h6.69 a3.35,3.35 0 0 0 0,-6.69 z" fill="#dee3f3" opacity="0.5" id="svg_143"/><path d="M50.68000152587891,514.7600021362305 s17.5,34.35 3.24,53.14 s1.3,70 1.3,70 " fill="none" stroke="#6c63ff" stroke-miterlimit="10" id="svg_144"/><path d="M55.900001525878906,504.02000213623046 c0,6.62 -4.86,12 -4.86,12 s-4.86,-5.37 -4.86,-12 s4.86,-12 4.86,-12 S55.900001525878906,497.40000213623046 55.900001525878906,504.02000213623046 z" fill="#6c63ff" id="svg_145"/><path d="M59.7500015258789,514.7600021362305 s-17.5,34.35 -3.24,53.14 s-1.3,70 -1.3,70 " fill="none" stroke="#6c63ff" stroke-miterlimit="10" id="svg_146"/><path d="M54.570001525878894,504.02000213623046 c0,6.62 4.86,12 4.86,12 s4.86,-5.37 4.86,-12 s-4.86,-12 -4.86,-12 S54.570001525878894,497.40000213623046 54.570001525878894,504.02000213623046 z" fill="#6c63ff" id="svg_147"/><path d="M54.570001525878894,504.02000213623046 c0,6.62 4.86,12 4.86,12 s4.86,-5.37 4.86,-12 s-4.86,-12 -4.86,-12 S54.570001525878894,497.40000213623046 54.570001525878894,504.02000213623046 z" opacity="0.1" id="svg_148"/><path d="M66.9000015258789,514.7600021362305 s17.5,34.35 3.24,53.14 s1.3,70 1.3,70 " fill="none" stroke="#6c63ff" stroke-miterlimit="10" id="svg_149"/><path d="M72.0700015258789,504.02000213623046 c0,6.62 -4.86,12 -4.86,12 s-4.86,-5.37 -4.86,-12 s4.86,-12 4.86,-12 S72.0700015258789,497.40000213623046 72.0700015258789,504.02000213623046 z" fill="#6c63ff" id="svg_150"/><path d="M69.3400015258789,531.5400021362304 c-4.59,4.77 -11.82,5.27 -11.82,5.27 s0.22000000000000003,-7.24 4.8100000000000005,-12 s11.82,-5.27 11.82,-5.27 S73.9000015258789,526.7600021362305 69.3400015258789,531.5400021362304 z" fill="#6c63ff" id="svg_151"/><path d="M69.80000152587891,555.2400021362305 c-4.59,4.77 -11.82,5.27 -11.82,5.27 s0.22000000000000003,-7.24 4.8100000000000005,-12 s11.82,-5.27 11.82,-5.27 S74.39000152587892,550.4600021362305 69.80000152587891,555.2400021362305 z" fill="#6c63ff" id="svg_152"/><path d="M44.900001525878906,568.2700021362305 c4.34,5 4.19,12.24 4.19,12.24 s-7.19,-0.8700000000000001 -11.53,-5.87 s-4.19,-12.24 -4.19,-12.24 S40.5600015258789,563.2700021362305 44.900001525878906,568.2700021362305 z" fill="#6c63ff" id="svg_153"/><path d="M48.900001525878906,517.7600021362305 c5.52,3.66 7.3100000000000005,10.68 7.3100000000000005,10.68 s-7.16,1.09 -12.68,-2.5700000000000003 s-7.3100000000000005,-10.68 -7.3100000000000005,-10.68 S43.4100015258789,514.0800021362305 48.900001525878906,517.7600021362305 z" fill="#6c63ff" id="svg_154"/><path d="M48.900001525878906,517.7600021362305 c5.52,3.66 7.3100000000000005,10.68 7.3100000000000005,10.68 s-7.16,1.09 -12.68,-2.5700000000000003 s-7.3100000000000005,-10.68 -7.3100000000000005,-10.68 S43.4100015258789,514.0800021362305 48.900001525878906,517.7600021362305 z" opacity="0.1" id="svg_155"/><path d="M75.95000152587892,514.7600021362305 s-17.5,34.35 -3.24,53.14 s-1.3,70 -1.3,70 " fill="none" stroke="#6c63ff" stroke-miterlimit="10" id="svg_156"/><path d="M70.77000152587891,504.02000213623046 c0,6.62 4.86,12 4.86,12 s4.86,-5.37 4.86,-12 s-4.86,-12 -4.86,-12 S70.77000152587891,497.40000213623046 70.77000152587891,504.02000213623046 z" fill="#6c63ff" id="svg_157"/><path d="M70.77000152587891,504.02000213623046 c0,6.62 4.86,12 4.86,12 s4.86,-5.37 4.86,-12 s-4.86,-12 -4.86,-12 S70.77000152587891,497.40000213623046 70.77000152587891,504.02000213623046 z" opacity="0.1" id="svg_158"/><path d="M72.17000152587892,532.0500021362304 c-4.65,4.72 -5,12 -5,12 s7.23,-0.41000000000000003 11.88,-5.13 s5,-12 5,-12 S76.8200015258789,527.3300021362305 72.17000152587892,532.0500021362304 z" fill="#6c63ff" id="svg_159"/><path d="M72.17000152587892,532.0500021362304 c-4.65,4.72 -5,12 -5,12 s7.23,-0.41000000000000003 11.88,-5.13 s5,-12 5,-12 S76.8200015258789,527.3300021362305 72.17000152587892,532.0500021362304 z" opacity="0.1" id="svg_160"/><path d="M81.2800015258789,564.8600021362305 c-4.65,4.72 -5,12 -5,12 s7.23,-0.41000000000000003 11.88,-5.13 s5,-12 5,-12 S85.9000015258789,560.1400021362305 81.2800015258789,564.8600021362305 z" fill="#6c63ff" id="svg_161"/><path d="M67.9000015258789,557.6500021362305 s10.53,-16.6 25.32,-17 " fill="none" stroke="#6c63ff" stroke-miterlimit="10" id="svg_162"/><path d="M59.67000152587892,547.6200021362305 s-10.53,-16.6 -25.32,-17 " fill="none" stroke="#6c63ff" stroke-miterlimit="10" id="svg_163"/><path d="M58.30000152587891,571.3200021362304 s10.53,-16.6 25.32,-17 " fill="none" stroke="#6c63ff" stroke-miterlimit="10" id="svg_164"/><circle cx="92.70999908447266" cy="540.5599975585938" r="2.7300000190734863" fill="#6c63ff" id="svg_165"/><circle cx="34.61000061035156" cy="530.760009765625" r="2.7300000190734863" fill="#6c63ff" id="svg_166"/><path d="M66.05000152587891,576.7600021362305 s-10.53,-16.6 -25.32,-17 " fill="none" stroke="#6c63ff" stroke-miterlimit="10" id="svg_167"/><circle cx="40.9900016784668" cy="559.9199829101562" r="2.7300000190734863" fill="#6c63ff" id="svg_168"/><circle cx="83.81999969482422" cy="554.4600219726562" r="2.7300000190734863" fill="#6c63ff" id="svg_169"/><path d="M124.2800015258789,617.9100021362304 S98.9000015258789,612.8300021362305 92.1200015258789,606.0600021362304 S54.900001525878906,587.4500021362305 51.51000152587892,595.9100021362304 s-45.69,37.23 -16.92,42.31 s67.69,6.77 76.15,3.38 S124.2800015258789,617.9100021362304 124.2800015258789,617.9100021362304 z" fill="#a8a8a8" id="svg_170"/><path d="M34.590001525878904,635.0700021362304 c28.77,5.08 67.69,6.77 76.15,3.38 c6.44,-2.58 10.92,-15 12.69,-20.72 l0.8500000000000001,0.18000000000000002 s-5.08,20.31 -13.54,23.69 s-47.38,1.6900000000000002 -76.15,-3.38 c-8.3,-1.47 -10.68,-4.91 -9.78,-9.26 C25.51000152587892,631.7600021362305 28.410001525878897,633.9800021362305 34.590001525878904,635.0700021362304 z" opacity="0.2" id="svg_171"/><path d="M894.8300015258789,522.5400021362304 s8.38,11 -3.87,27.5 s-22.35,30.51 -18.26,40.83 c0,0 18.48,-30.73 33.52,-31.16 S911.3800015258789,541.0100021362305 894.8300015258789,522.5400021362304 z" fill="#6c63ff" id="svg_172"/><path d="M894.8300015258789,522.5400021362304 a13.57,13.57 0 0 1 1.71,3.44 c14.68,17.24 22.49,33.33 8.39,33.74 c-13.14,0.38000000000000006 -28.9,23.87 -32.68,29.81 a12.74,12.74 0 0 0 0.45,1.35 s18.48,-30.73 33.52,-31.16 S911.3800015258789,541.0100021362305 894.8300015258789,522.5400021362304 z" opacity="0.1" id="svg_173"/><path d="M910.4100015258789,536.5000021362305 c0,3.8600000000000003 -0.43000000000000005,7 -1,7 s-1,-3.13 -1,-7 s0.54,-2 1.07,-2 S910.4100015258789,532.6500021362305 910.4100015258789,536.5000021362305 z" fill="#ffd037" id="svg_174"/><path d="M915.7600015258788,541.1100021362305 c-3.39,1.85 -6.34,3 -6.59,2.49 s2.2800000000000002,-2.35 5.67,-4.19 s2.05,-0.5 2.31,0 S919.1400015258789,539.2600021362305 915.7600015258788,541.1100021362305 z" fill="#ffd037" id="svg_175"/><path d="M850.5700015258789,522.5400021362304 s-8.38,11 3.87,27.5 s22.35,30.51 18.26,40.83 c0,0 -18.48,-30.73 -33.52,-31.16 S834.0200015258789,541.0100021362305 850.5700015258789,522.5400021362304 z" fill="#6c63ff" id="svg_176"/><path d="M850.5700015258789,522.5400021362304 a13.57,13.57 0 0 0 -1.71,3.44 c-14.68,17.24 -22.49,33.33 -8.39,33.74 c13.14,0.38000000000000006 28.9,23.87 32.68,29.81 a12.74,12.74 0 0 1 -0.45,1.35 s-18.48,-30.73 -33.52,-31.16 S834.0200015258789,541.0100021362305 850.5700015258789,522.5400021362304 z" opacity="0.1" id="svg_177"/><path d="M834.9900015258789,536.5000021362305 c0,3.8600000000000003 0.43000000000000005,7 1,7 s1,-3.13 1,-7 s-0.54,-2 -1.07,-2 S834.9900015258789,532.6500021362305 834.9900015258789,536.5000021362305 z" fill="#ffd037" id="svg_178"/><path d="M829.6400015258789,541.1100021362305 c3.39,1.85 6.34,3 6.59,2.49 s-2.2800000000000002,-2.35 -5.67,-4.19 s-2.05,-0.5 -2.31,0 S826.2500015258789,539.2600021362305 829.6400015258789,541.1100021362305 z" fill="#ffd037" id="svg_179"/><path d="M837.6600015258789,589.4300021362304 s23.43,-0.7200000000000001 30.49,-5.75 s36,-11 37.79,-3 s35.21,40.11 8.76,40.32 s-61.46,-4.12 -68.51,-8.41 S837.6600015258789,589.4300021362304 837.6600015258789,589.4300021362304 z" fill="#a8a8a8" id="svg_180"/><path d="M915.1700015258789,618.2300021362305 c-26.45,0.21000000000000002 -61.46,-4.12 -68.51,-8.41 c-5.37,-3.27 -7.51,-15 -8.22,-20.41 l-0.78,0 s1.48,18.9 8.53,23.19 s42.06,8.63 68.51,8.41 c7.640000000000001,-0.06000000000000001 10.27,-2.7800000000000002 10.13,-6.8 C923.7700015258788,616.6600021362304 920.9000015258789,618.1800021362304 915.1700015258789,618.2300021362305 z" opacity="0.2" id="svg_181"/><path d="M177.8400015258789,74.64000213623046 h-6.28 a4.4,4.4 0 1 0 0,-8.79 H120.68000152587891 a4.4,4.4 0 0 0 0,8.79 h6.28 a4.4,4.4 0 0 0 0,8.79 h-8.79 a4.4,4.4 0 0 0 0,8.79 h50.88 a4.4,4.4 0 1 0 0,-8.79 h8.79 a4.4,4.4 0 0 0 0,-8.79 z" fill="#dee3f3" opacity="0.5" id="svg_182"/></g></svg>