<svg xmlns="http://www.w3.org/2000/svg" data-name="Layer 1" width="1120.59228515625" height="777.9158325195312" style=""><rect id="backgroundrect" width="100%" height="100%" x="0" y="0" fill="none" stroke="none"/><title>not found</title><g class="currentLayer" style=""><title>Layer 1</title><circle cx="212.59225463867188" cy="103" r="64" fill="#f6ebdf" id="svg_1" class="" fill-opacity="1"/><path d="M523.9762911340332,343.1217300744629 c0,151.01141 -89.77389,203.73895 -200.51559,203.73895 S122.9451311340332,494.13314007446286 122.9451311340332,343.1217300744629 S323.46070113403323,7.446288918799837e-8 323.46070113403323,7.446288918799837e-8 S523.9762911340332,192.1103200744629 523.9762911340332,343.1217300744629 z" fill="#6c63ff" id="svg_2" class="" fill-opacity="1"/><polygon points="316.156 523.761 318.21 397.378 403.674 241.024 318.532 377.552 319.455 320.725 378.357 207.605 319.699 305.687 319.699 305.687 321.359 203.481 384.433 113.423 321.621 187.409 322.658 0 316.138 248.096 316.674 237.861 252.547 139.704 315.646 257.508 309.671 371.654 309.493 368.625 235.565 265.329 309.269 379.328 308.522 393.603 308.388 393.818 308.449 394.99 293.29 684.589 313.544 684.589 315.974 535.005 389.496 421.285 316.156 523.761" fill="#3f3d56" id="svg_3"/><path d="M1120.5922611340332,404.9715900744629 c0,123.61 -73.4842,166.77 -164.13156,166.77 s-164.13156,-43.16 -164.13156,-166.77 S956.4607011340332,124.11010007446288 956.4607011340332,124.11010007446288 S1120.5922611340332,281.3615600744629 1120.5922611340332,404.9715900744629 z" fill="#bcbaf9" id="svg_4" class="" fill-opacity="1"/><polygon points="950.482 552.833 952.162 449.383 1022.119 321.4 952.426 433.154 953.182 386.639 1001.396 294.044 953.382 374.329 953.382 374.329 954.741 290.669 1006.369 216.952 954.954 277.514 955.804 124.11 950.467 327.188 950.906 318.811 898.414 238.464 950.064 334.893 945.173 428.327 945.027 425.847 884.514 341.294 944.844 434.608 944.232 446.293 944.123 446.469 944.173 447.428 931.764 684.478 948.343 684.478 950.332 562.037 1010.514 468.952 950.482 552.833" fill="#3f3d56" id="svg_5"/><ellipse cx="554.59228515625" cy="680.47900390625" rx="554.59228515625" ry="28.034330368041992" fill="#ebebfc" id="svg_6" class="" fill-opacity="1"/><ellipse cx="892.4448852539062" cy="726.796630859375" rx="94.98857879638672" ry="4.801620006561279" fill="#ebebfc" id="svg_7" class="" fill-opacity="1"/><ellipse cx="548.7196044921875" cy="773.1141967773438" rx="94.98857879638672" ry="4.801620006561279" fill="#ebebfc" id="svg_8" class="" fill-opacity="1"/><ellipse cx="287.9443054199219" cy="734.2788696289062" rx="217.0143585205078" ry="10.96996021270752" fill="#ebebfc" id="svg_9" class="" fill-opacity="1"/><circle cx="95.08374786376953" cy="566.2698364257812" r="79" fill="#656380" id="svg_10" class="" fill-opacity="1"/><rect x="68.48094940185547" y="626.7132568359375" width="24" height="43" transform="rotate(0.6750900149345398 80.48094940184106,648.2132568359377) " fill="#656380" id="svg_11" class="" fill-opacity="1"/><rect x="116.48760223388672" y="626.7133178710938" width="24" height="43" transform="rotate(0.6750900149345398 -31.314519882203403,-62.8755493164061) " fill="#2f2e41" id="svg_12"/><ellipse cx="-534.586181640625" cy="1515.0955810546875" rx="7.5" ry="20" transform="rotate(-89.32491302490234 -534.5861816406251,1515.0955810546875) " fill="#bcbaf9" id="svg_13" class="" fill-opacity="1"/><ellipse cx="-438.70062255859375" cy="1562.237060546875" rx="7.5" ry="20" transform="rotate(-89.32491302490234 -606.2547607421874,830.0553588867188) " fill="#2f2e41" id="svg_14"/><circle cx="99.31925201416016" cy="546.2947998046875" r="27" fill="#fff" id="svg_15"/><circle cx="99.31925201416016" cy="546.2947998046875" r="9" fill="#3f3d56" id="svg_16"/><path d="M21.322011134033204,491.9042800744629 c-6.04185,-28.64075 14.68758,-57.26483 46.30049,-63.93367 s62.13813,11.14292 68.18,39.78367 s-14.97834,38.93 -46.59124,45.59886 S27.363871134033204,520.5450400744629 21.322011134033204,491.9042800744629 z" fill="#6c63ff" id="svg_17"/><path d="M217.5922611340332,610.3420300744629 c0,55.07585 -32.73985,74.3063 -73.13,74.3063 q-1.40351,0 -2.80255,-0.031200000000000006 c-1.87139,-0.040110000000000014 -3.72494,-0.1292 -5.55619,-0.254 c-36.45135,-2.57979 -64.77127,-22.79937 -64.77127,-74.02113 c0,-53.00843 67.73872,-119.89612 72.827,-124.84633 l0.00892,-0.008890000000000002 c0.19608000000000003,-0.19159000000000004 0.29409,-0.28516 0.29409,-0.28516 S217.5922611340332,555.2661900744629 217.5922611340332,610.3420300744629 z" fill="#6c63ff" id="svg_18"/><path d="M141.7978111340332,676.2227400744629 l26.747,-37.37367 l-26.81386,41.4773 l-0.07125000000000001,4.29076 c-1.87139,-0.040110000000000014 -3.72494,-0.1292 -5.55619,-0.254 l2.88282,-55.10258 l-0.022300000000000007,-0.42775 l0.04900000000000001,-0.08020000000000002 l0.27179,-5.20415 l-26.88076,-41.5798 l26.96539,37.67668 l0.06244000000000001,1.105 l2.17874,-41.63324 l-23.0132,-42.96551 l23.29391,35.6583 l2.26789,-86.31419 l0.00892,-0.29400000000000004 v0.28516 l-0.37871000000000005,68.064 l22.91079,-26.98321 l-23.00435,32.84678 l-0.6059500000000001,37.27566 L164.4813611340332,560.9159200744629 l-21.4805,41.259 l-0.33863000000000004,20.723 l31.05561,-49.79149 l-31.17146,57.023 z" fill="#3f3d56" id="svg_19"/><circle cx="712.4850463867188" cy="565.4153442382812" r="79" fill="#656380" id="svg_20" class="" fill-opacity="1"/><rect x="525.7825927734375" y="883.6875" width="24" height="43" transform="rotate(-17.083450317382812 -215.99456787109364,191.86398315429682) " fill="#2f2e41" id="svg_21"/><rect x="787.6593017578125" y="677.7228393554688" width="24" height="43" transform="matrix(0.95588,-0.29376,0.29376,0.95588,-209.82788,204.72037) " fill="#2f2e41" id="svg_22"/><ellipse cx="547.0277099609375" cy="928.8358764648438" rx="20" ry="7.5" transform="rotate(-17.083450317382812 -220.85929870605483,196.83311462402338) " fill="#2f2e41" id="svg_23"/><ellipse cx="599.050537109375" cy="926.5072021484375" rx="20" ry="7.5" transform="rotate(-17.083450317382812 -214.42477416992173,209.56103515625003) " fill="#2f2e41" id="svg_24"/><circle cx="708.5215454101562" cy="545.710205078125" r="27" fill="#fff" id="svg_25"/><circle cx="708.5215454101562" cy="545.710205078125" r="9" fill="#3f3d56" id="svg_26"/><path d="M617.6513911340332,517.7010800744629 c-14.48957,-25.433230000000002 -3.4784100000000002,-59.016 24.59412,-75.0092 s62.57592,-8.34055 77.06549,17.09268 s-2.39072,41.6435 -30.46325,57.63671 S632.1409611340332,543.1343100744629 617.6513911340332,517.7010800744629 z" fill="#6c63ff" id="svg_27"/><path d="M571.5922611340332,600.2566700744629 c0,50.55711 -30.05368,68.20979 -67.13,68.20979 q-1.28835,0 -2.57261,-0.028640000000000002 c-1.71785,-0.036820000000000006 -3.41933,-0.11860000000000002 -5.10033,-0.23313 c-33.46068,-2.36813 -59.45707,-20.92878 -59.45707,-67.948 c0,-48.65932 62.18106,-110.05916 66.85186,-114.60322 l0.008190000000000001,-0.008170000000000002 c0.18000000000000002,-0.17587 0.27,-0.26177 0.27,-0.26177 S571.5922611340332,549.6995600744629 571.5922611340332,600.2566700744629 z" fill="#bcbaf9" id="svg_28" class="" fill-opacity="1"/><path d="M502.0164211340332,660.7321600744629 l24.55253,-34.30732 l-24.6139,38.07426 l-0.06540000000000001,3.93872 c-1.71785,-0.036820000000000006 -3.41933,-0.11860000000000002 -5.10033,-0.23313 l2.6463,-50.58165 l-0.020470000000000006,-0.39266000000000006 l0.04500000000000001,-0.07361000000000001 l0.24949000000000005,-4.7771799999999995 l-24.67531,-38.16836 l24.753,34.58547 l0.057310000000000014,1.01433 l2,-38.21741 l-21.12507,-39.44039 L502.1022911340332,564.8859200744629 l2.08182,-79.23247 l0.008190000000000001,-0.26994 v0.26177 l-0.34764000000000006,62.47962 l21.031,-24.76934 l-21.11693,30.15184 l-0.5562400000000001,34.21735 l19.63634,-32.839 l-19.71812,37.87389 l-0.31085000000000007,19.0228 l28.50763,-45.70631 l-28.614,52.34448 z" fill="#3f3d56" id="svg_29"/><path d="M835.5922611340332,621.3420300744629 c0,55.07585 -32.73985,74.3063 -73.13,74.3063 q-1.4035,0 -2.80255,-0.031200000000000006 c-1.87139,-0.040110000000000014 -3.72494,-0.1292 -5.55619,-0.254 c-36.45135,-2.57979 -64.77127,-22.79937 -64.77127,-74.02113 c0,-53.00843 67.73872,-119.89612 72.827,-124.84633 l0.00892,-0.008890000000000002 c0.19608000000000003,-0.19159000000000004 0.29409,-0.28516 0.29409,-0.28516 S835.5922611340332,566.2661900744629 835.5922611340332,621.3420300744629 z" fill="#6c63ff" id="svg_30" class="" fill-opacity="1"/><path d="M759.7978111340332,687.2227400744629 l26.747,-37.37367 l-26.81386,41.4773 l-0.07125000000000001,4.29076 c-1.87139,-0.040110000000000014 -3.72494,-0.1292 -5.55619,-0.254 l2.88282,-55.10258 l-0.022300000000000007,-0.42775 l0.04900000000000001,-0.08020000000000002 l0.27179,-5.20415 L730.4041311340332,592.9686800744629 l26.96539,37.67668 l0.06244000000000001,1.105 l2.17874,-41.63324 l-23.0132,-42.96551 l23.29391,35.6583 l2.26789,-86.31419 l0.00892,-0.29400000000000004 v0.28516 l-0.37871000000000005,68.064 l22.91079,-26.98321 l-23.00435,32.84678 l-0.6060000000000001,37.27566 L782.4813611340332,571.9159200744629 l-21.4805,41.259 l-0.33863000000000004,20.723 l31.05561,-49.79149 l-31.17146,57.023 z" fill="#3f3d56" id="svg_31"/><ellipse cx="500.6817932128906" cy="1623.04541015625" rx="12.400270462036133" ry="39.5" transform="rotate(-64.62574005126953 -220.8351745605469,966.2232055664062) " fill="#656380" id="svg_32" class="" fill-opacity="1"/><ellipse cx="-461.5624084472656" cy="1106.535888671875" rx="12.400270462036133" ry="39.5" transform="rotate(-68.15828704833984 -574.079345703125,452.7136840820312) " fill="#656380" id="svg_33" class="" fill-opacity="1"/></g></svg>