<svg xmlns="http://www.w3.org/2000/svg" xmlns:xlink="http://www.w3.org/1999/xlink" data-name="Layer 1" width="988.73407" height="579.5" style=""><rect id="backgroundrect" width="100%" height="100%" x="0" y="0" fill="none" stroke="none"/><defs><linearGradient id="ea70ace5-c99b-481d-ac97-2307e331f198" x1="0.4999996120349851" y1="0.9999998113054557" x2="0.4999996120349851" y2="2.695636347011639e-8"><stop offset="0" stop-color="gray" stop-opacity="0.25"/><stop offset="0.53514" stop-color="gray" stop-opacity="0.12"/><stop offset="1" stop-color="gray" stop-opacity="0.1"/></linearGradient></defs><title>accept request</title><g class="currentLayer" style=""><title>Layer 1</title><circle cx="593.534912109375" cy="76.62531280517578" r="25.1497802734375" fill="none" stroke="#3f3d56" stroke-miterlimit="10" id="svg_1"/><path d="M644.7948825415039,29.326300000000003 l-6.08073,-6.1126 a3.22835,3.22835 0 0 0 -4.58435,-0.03167000000000001 l-38.171,37.8525 l-16.14072,-16.268 a3.21846,3.21846 0 0 0 -4.55248,-0.03187000000000001 l-6.14427,6.08073 a3.25705,3.25705 0 0 0 -0.03187000000000001,4.58435 L593.6030425415039,80.10409000000001 a3.25706,3.25706 0 0 0 4.58435,0.031860000000000006 l46.57565,-46.2253 A3.22853,3.22853 0 0 0 644.7948825415039,29.326300000000003 z" fill="#dc5e85" id="svg_2" class="" fill-opacity="1"/><rect y="64.05042266845703" width="456.0160217285156" height="51.976219177246094" rx="25.610240936279297" fill="#f2f2f2" id="svg_3"/><rect x="0.5700200200080872" y="154.1704864501953" width="456.0160217285156" height="51.976219177246094" rx="25.610240936279297" fill="#f2f2f2" id="svg_4"/><rect x="1.1400400400161743" y="244.29054260253906" width="456.0160217285156" height="51.976219177246094" rx="25.610240936279297" fill="#f2f2f2" id="svg_5"/><rect x="1.7100600004196167" y="334.4106140136719" width="456.0160217285156" height="51.976219177246094" rx="25.610240936279297" fill="#f2f2f2" id="svg_6"/><rect x="14.251540184020996" y="50.63719940185547" width="456.0160217285156" height="51.976219177246094" rx="25.610240936279297" fill="none" stroke="#3f3d56" stroke-miterlimit="10" id="svg_7"/><rect x="14.82155990600586" y="140.75726318359375" width="456.0160217285156" height="51.976219177246094" rx="25.610240936279297" fill="none" stroke="#3f3d56" stroke-miterlimit="10" id="svg_8"/><rect x="15.391579627990723" y="230.8773193359375" width="456.0160217285156" height="51.976219177246094" rx="25.610240936279297" fill="none" stroke="#3f3d56" stroke-miterlimit="10" id="svg_9"/><rect x="15.961600303649902" y="320.99737548828125" width="456.0160217285156" height="51.976219177246094" rx="25.610240936279297" fill="none" stroke="#3f3d56" stroke-miterlimit="10" id="svg_10"/><circle cx="593.534912109375" cy="167.16453552246094" r="25.1497802734375" fill="none" stroke="#3f3d56" stroke-miterlimit="10" id="svg_11"/><circle cx="593.534912109375" cy="257.7037658691406" r="25.1497802734375" fill="none" stroke="#3f3d56" stroke-miterlimit="10" id="svg_12"/><circle cx="593.534912109375" cy="348.24298095703125" r="25.1497802734375" fill="none" stroke="#3f3d56" stroke-miterlimit="10" id="svg_13"/><path d="M643.2564210947418,120.70384999999999 l-6.08073,-6.1126 a3.22836,3.22836 0 0 0 -4.58435,-0.03167000000000002 l-38.171,37.8525 l-16.14072,-16.268 a3.21846,3.21846 0 0 0 -4.55248,-0.031870000000000016 l-6.14427,6.08073 a3.25705,3.25705 0 0 0 -0.031870000000000016,4.58435 L592.0645810947418,171.48164000000003 a3.25706,3.25706 0 0 0 4.58435,0.03186000000000001 L643.2245810947418,125.28820000000002 A3.22853,3.22853 0 0 0 643.2564210947418,120.70384999999999 z" fill="#dc5e85" id="svg_14" class="" fill-opacity="1"/><path d="M644.7948825415039,303.459 l-6.08073,-6.1126 a3.22836,3.22836 0 0 0 -4.58435,-0.03167000000000001 l-38.171,37.8525 l-16.14072,-16.268 a3.21846,3.21846 0 0 0 -4.55248,-0.03187000000000001 l-6.14427,6.08073 a3.25705,3.25705 0 0 0 -0.03187000000000001,4.58435 L593.6030425415039,354.23674000000005 a3.25707,3.25707 0 0 0 4.58435,0.03187000000000001 L644.7630425415039,308.0433 A3.22853,3.22853 0 0 0 644.7948825415039,303.459 z" fill="#dc5e85" id="svg_15" class="" fill-opacity="1"/><ellipse cx="809.2340698242188" cy="555.5" rx="154" ry="24" fill="#f2f2f2" id="svg_16"/><ellipse cx="834.2340698242188" cy="546.5" rx="154" ry="24" fill="none" stroke="#3f3d56" stroke-miterlimit="10" id="svg_17"/><path d="M909.8480425415039,109.868 q-0.6671500000000001,-0.7601200000000001 -1.37246,-1.479 c3.60966,-4.09523 7.34572,-8.294740000000001 7.31248,-13.55789 c-0.040440000000000004,-6.39611 -5.71507,-11.30335 -7.83462,-17.34974 c-2.8846600000000002,-8.229 1.11832,-17.04462 2.76476,-25.59747 a48.00524,48.00524 0 0 0 -10.41037,-39.52942 c-1.66736,-1.97019 -3.60318,-3.87577 -6.08411,-4.65777 c-3.77509,-1.19 -7.79016,0.46332000000000007 -11.72325,0.9490000000000001 c-12.98319,1.6033 -24.79534,-9.58367 -37.84068,-8.58217 a7.03588,7.03588 0 0 0 -2.51132,0.56218 c-1.6880900000000003,0.80728 -2.60326,2.58858 -3.6467400000000003,4.12409 c-4.05159,5.96224 -10.85669,8.92553 -17.62676,11.988 a9.21262,9.21262 0 0 0 -2.40534,1.10294 c-2.03327,0.9466700000000001 -4.035,1.93361 -5.924,3.05167 c-12.78224,7.5656300000000005 -10.92812,18.151 -3.39148,24.68948 c-1.47266,7.34 -8.97643,13.80355 -7.68367,21.34992 c1.01346,5.91592 7.17395,9.94216 8.36063,15.826740000000001 c0.6892400000000002,3.41778 -0.3963600000000001,6.67471 -1.90361,9.90759 c-14.30363,3.31015 -30.46208,9.40623 -31.72314,20.16422 c-2.19388,18.71589 -8.79718,70.40566 -8.79718,70.40566 s-7.64972,41.41509 21.41922,21.837 l-0.37319,1.10211 a240.91987,240.91987 0 0 0 -10.66918,48.81711 c-0.29476,2.46881 -0.88641,4.41456 -1.96216,5.0499 c-0.39000000000000007,0.23035 0.3814600000000001,0.59541 2.06049,1.052 c-0.19000000000000003,0.6966100000000002 -0.39449000000000006,1.3892200000000001 -0.5764400000000001,2.088 a198.38911,198.38911 0 0 0 -6.09685,36.97236 a260.04785,260.04785 0 0 1 -4.56686,32.9288 c-6.88475,34.63808 0,79.06518 0,79.06518 l15.02406,70.737 l2.5703,12.093210000000001 a17.96865,17.96865 0 0 0 6.08952,4.39474 a94.292,94.292 0 0 1 2.088,13.16526 c0.040760000000000005,0.49333000000000005 0.07359000000000002,0.99314 0.10543000000000001,1.4935100000000001 a6.28179,6.28179 0 0 0 -4.45812,2.78354 c-5.3548100000000005,7.53 0.7650000000000001,13.554 -19.88928,28.61406 c-5.336,3.89076 -7.90969,7.42827 -8.56247,10.43361 h0 v0.00009000000000000003 c-0.70259,3.23487 0.82357,5.85125 3.54771,7.623 l0.0056500000000000005,0.003590000000000001 a12.91681,12.91681 0 0 0 1.445,0.80815 l0.023440000000000006,0.011000000000000003 q0.37860000000000005,0.18100000000000002 0.7763599999999999,0.3446100000000001 l0.003600000000000001,0.0014700000000000004 q0.3989100000000001,0.16338000000000003 0.8160000000000001,0.30852000000000007 l0.04818000000000001,0.016270000000000003 q0.3918600000000001,0.13519 0.7979400000000001,0.25407 l0.05818000000000001,0.017420000000000005 q0.42174,0.12195 0.85718,0.22600000000000003 c0.024650000000000005,0.005930000000000001 0.04968000000000001,0.011210000000000003 0.07442000000000001,0.017000000000000005 q0.39971000000000007,0.09382000000000003 0.80966,0.17217 c0.035390000000000005,0.006800000000000002 0.07041,0.014110000000000001 0.10589000000000001,0.020680000000000004 q0.43828000000000006,0.08161000000000002 0.8864200000000001,0.14574000000000004 c0.03235000000000001,0.004590000000000001 0.06508000000000001,0.008360000000000001 0.09753000000000003,0.012860000000000002 q0.40124,0.055290000000000006 0.80928,0.09569000000000004 c0.051690000000000014,0.005150000000000001 0.10300000000000001,0.010850000000000002 0.15487,0.015670000000000003 q0.4471800000000001,0.041580000000000006 0.90071,0.06623000000000002 c0.03865000000000001,0.0020000000000000005 0.07759000000000002,0.0029400000000000008 0.11630000000000001,0.004830000000000001 q0.40144,0.019160000000000003 0.8069000000000001,0.023940000000000006 c0.06341000000000001,0.0008300000000000002 0.12658,0.0020000000000000005 0.19012,0.0023000000000000004 c0.30195000000000005,0.0013300000000000005 0.6048700000000001,-0.0021600000000000005 0.90906,-0.012590000000000002 c0.03987000000000001,-0.0013300000000000005 0.07989000000000002,-0.004000000000000001 0.11981000000000001,-0.005560000000000002 q0.40333,-0.015930000000000003 0.80835,-0.04642000000000001 c0.07152000000000001,-0.00529 0.14291000000000004,-0.010340000000000002 0.21449000000000004,-0.016320000000000005 c0.30316000000000004,-0.025280000000000004 0.60655,-0.055240000000000004 0.91,-0.09251000000000002 c0.036090000000000004,-0.004420000000000001 0.07214000000000001,-0.01016 0.10823000000000002,-0.014760000000000002 q0.40759,-0.05211000000000002 0.81455,-0.11958000000000002 c0.07555,-0.012410000000000001 0.15105000000000002,-0.024730000000000002 0.22654000000000005,-0.03792 c0.30162000000000005,-0.052620000000000014 0.6027800000000001,-0.10971000000000002 0.90281,-0.17469 c0.028900000000000006,-0.006300000000000002 0.057610000000000015,-0.013650000000000002 0.08651000000000002,-0.020000000000000004 c0.27431000000000005,-0.06058000000000001 0.5474,-0.12745 0.8196500000000001,-0.19855000000000003 c0.07700000000000001,-0.020080000000000004 0.15370000000000003,-0.040260000000000004 0.23042,-0.06122000000000001 c0.29700000000000004,-0.08100000000000002 0.5930000000000001,-0.16632000000000002 0.8865000000000001,-0.26017 l0.04879000000000001,-0.016500000000000004 c0.27916,-0.09000000000000002 0.5559000000000001,-0.18752000000000002 0.8311400000000001,-0.28927 q0.11129000000000003,-0.04116000000000001 0.22200000000000003,-0.08351000000000001 c0.28958000000000006,-0.11100000000000002 0.57756,-0.22600000000000003 0.8616700000000002,-0.35030000000000006 c13.7695,-6.024 42.07347,-21.83705 42.07347,-21.83705 l-0.0003700000000000001,-0.14395000000000002 l-0.0004200000000000001,-0.09633000000000003 l-0.0008000000000000003,-0.13953000000000002 l-0.0008400000000000003,-0.12524000000000002 l-0.0017700000000000005,-0.21937 l-0.0018700000000000004,-0.19615000000000002 c-0.0007900000000000002,-0.07818000000000001 -0.0015900000000000005,-0.15613000000000002 -0.0026100000000000008,-0.24322000000000002 l-0.0029400000000000008,-0.23086 c-0.0013600000000000003,-0.10511000000000001 -0.0027100000000000006,-0.20847000000000002 -0.004390000000000001,-0.32378000000000007 c-0.0011700000000000002,-0.07809000000000002 -0.002660000000000001,-0.16400000000000003 -0.004000000000000001,-0.24653000000000003 c-0.0020000000000000005,-0.12100000000000001 -0.0037800000000000012,-0.23733 -0.006120000000000002,-0.3675800000000001 q-0.0056700000000000006,-0.3123700000000001 -0.012930000000000002,-0.6576900000000002 h0 c-0.14068,-6.58021 -0.78986,-21.69563 -3.78583,-21.10583 c-1.02065,0.20094000000000004 -1.7144599999999999,1.6352900000000001 -2.43032,3.2868500000000003 c-0.11588000000000001,-0.21840000000000004 -0.2335,-0.44149000000000005 -0.35419,-0.6739500000000002 c-2.91576,-5.62275 -7.13286,-15.27329 -7.54406,-24.7053 a44.20726,44.20726 0 0 0 6.50371,-5.768660000000001 s-1.5376,-6.47584 -2.84567,-13.30558 c-1.1322,-5.91858 -2.09607,-12.10823 -1.74416,-14.55549 c0.7650000000000001,-5.271 -9.17967,-45.9331 -9.17967,-45.9331 s1.02508,-8.94566 3.08286,-21.37773 c4.00079,-24.16385 11.88,-61.50517 23.63761,-72.06227 c0.27538000000000007,-0.24100000000000002 0.54315,-0.47440000000000004 0.81853,-0.6852100000000001 c0,0 8.41469,1.506 15.29944,48.94511 l1.99657,21.12922 a122.61829,122.61829 0 0 0 2.96809,17.36422 a91.451,91.451 0 0 1 1.92009,27.77071 c-0.8720800000000001,12.45463 -1.24691,27.1156 -1.40757,37.40912 c-0.12237,7.75591 -0.12237,13.042 -0.12237,13.042 a28.87834,28.87834 0 0 0 4.58983,3.1714 v6.90947 a5.74882,5.74882 0 0 1 -1.6102500000000002,3.92637 l-0.026800000000000004,0.028730000000000002 a10.664860000000001,10.664860000000001 0 0 0 -2.30967,4.24933 c-1.33539,2.40373 -2.46548,6.308 -2.938,12.58777 c-1.52994,20.33105 -2.2949200000000003,18.072 -2.2949200000000003,18.072 a26.80959,26.80959 0 0 0 -1.73458,6.85579 v0 l0,0.0007300000000000002 c-0.04342000000000001,0.43956000000000006 -0.07083,0.8823400000000001 -0.07881,1.3259400000000001 c-0.0012600000000000003,0.06963000000000003 -0.0009400000000000003,0.13916 -0.0012200000000000004,0.20875000000000002 q-0.0011100000000000003,0.3049200000000001 0.011000000000000003,0.6077700000000001 q0.006160000000000002,0.14900000000000002 0.016000000000000004,0.29717000000000005 q0.014780000000000003,0.22509000000000004 0.037910000000000006,0.44774 q0.021150000000000006,0.20282 0.049490000000000006,0.40339 c0.013680000000000003,0.09541000000000002 0.027690000000000006,0.19050000000000003 0.04408000000000001,0.28500000000000003 q0.04678000000000001,0.27051000000000003 0.10893000000000001,0.535 c0.018580000000000003,0.07882000000000002 0.03926,0.15663000000000002 0.06000000000000001,0.23453000000000002 c0.04889000000000001,0.18412 0.10174000000000001,0.36644000000000004 0.16319000000000003,0.5446300000000001 c0.019370000000000005,0.05600000000000001 0.041740000000000006,0.11039000000000002 0.06242000000000001,0.16577000000000003 q0.09077000000000003,0.24391000000000004 0.19900000000000004,0.47862000000000005 c0.021850000000000005,0.04734000000000001 0.04170000000000001,0.09574000000000003 0.06467000000000002,0.14248000000000002 c0.08918000000000002,0.18186000000000002 0.18933000000000003,0.35752000000000006 0.29583000000000004,0.52945 c0.029460000000000007,0.04757000000000001 0.05887000000000001,0.09500000000000003 0.08974000000000003,0.14179000000000003 a5.67085,5.67085 0 0 0 0.3664700000000001,0.4955800000000001 c0.030670000000000006,0.037000000000000005 0.06322000000000003,0.07275000000000001 0.09500000000000003,0.10911000000000001 a5.46261,5.46261 0 0 0 0.461,0.47300000000000003 c0.017000000000000005,0.015350000000000003 0.036090000000000004,0.029280000000000004 0.05336000000000001,0.04444000000000001 a5.63173,5.63173 0 0 0 0.5288200000000001,0.40877 c0.028660000000000005,0.019670000000000003 0.05560000000000001,0.04053000000000001 0.08488000000000001,0.05979000000000001 a6.11867,6.11867 0 0 0 0.6292900000000001,0.35940000000000005 c0.04300000000000001,0.021510000000000005 0.08591000000000001,0.04300000000000001 0.12989,0.06375000000000001 a6.95634,6.95634 0 0 0 0.71852,0.29189000000000004 c0.04193000000000001,0.014340000000000002 0.08572000000000003,0.027210000000000005 0.12840000000000001,0.04100000000000001 a8.28482,8.28482 0 0 0 0.8508800000000001,0.22907000000000002 l0.030630000000000004,0.005470000000000001 c0.29783000000000004,0.06154000000000001 0.6144400000000001,0.10841 0.9440000000000001,0.14477 c0.04552000000000001,0.005050000000000001 0.08927000000000003,0.011490000000000002 0.13545000000000001,0.016000000000000004 c0.32650000000000007,0.03200000000000001 0.6708400000000002,0.04955000000000001 1.0291,0.05575000000000001 c0.06658000000000001,0.0011500000000000004 0.13353,0.0020000000000000005 0.20123000000000002,0.0022100000000000006 c0.3632,0.0011900000000000003 0.7410000000000001,-0.009700000000000004 1.13723,-0.036000000000000004 c0.06154000000000001,-0.004090000000000001 0.12551,-0.010390000000000002 0.18784000000000003,-0.015130000000000003 c0.42124,-0.032260000000000004 0.8558800000000001,-0.07574000000000002 1.3151700000000002,-0.14031000000000002 c16.06441,-2.259 23.71414,-3.765 22.94916,-12.801 c-0.46106,-5.4463 -1.75583,-13.35457 -2.71181,-18.77844 a28.23684,28.23684 0 0 0 -2.64635,-7.91906 q0.05994000000000001,-0.6350000000000001 0.11047000000000001,-1.30663 c0.27537000000000006,-3.73491 0.26006,-8.17759 -0.8720800000000001,-11.152 l0.35251000000000005,-6.59272 a21.02015,21.02015 0 0 0 10.3571,-6.20831 s0.11476000000000003,-4.8870000000000005 0.45135000000000003,-11.36281 c0.50486,-10.00738 1.51463,-23.81745 3.37351,-29.29928 c3.05989,-9.036 0,-40.66209 0,-40.66209 s-11.47459,-54.21613 -0.7650000000000001,-77.55918 c9.44847,-20.59108 9.36512,-41.18906 0.27832000000000007,-61.26513 a3.09818,3.09818 0 0 0 0.48666000000000004,-0.48100000000000004 s-2.2949200000000003,-1.506 -1.52995,-18.825 c0.5838200000000001,-13.21789 -3.28563,-26.86457 -5.15212,-32.59113 a79.72651,79.72651 0 0 0 8.977,3.22406 c17.59436,5.271 19.12431,-14.307 19.12431,-14.307 L911.2220425415039,175.70600000000002 l4.53646,-43.77388 l-0.0004200000000000001,-0.0017000000000000006 C917.0020425415039,128.49599999999998 918.6688625415038,119.91843 909.8480425415039,109.868 zm-77.76631,-29.01515 c-0.021430000000000005,0.48460000000000003 -0.054390000000000015,0.9688700000000001 -0.10323000000000002,1.45076 a19.4876,19.4876 0 0 1 -0.98068,4.5720600000000005 a30.382,30.382 0 0 0 0.9488800000000001,-6.10808 C831.9913625415039,80.79658 832.0369825415039,80.82415 832.0817525415039,80.85288 zM878.328212541504,187.75400000000002 c0.27187000000000006,0.49700000000000005 0.5296500000000001,0.98114 0.77818,1.45678 l-1.932,-0.9862 a43.26044,43.26044 0 0 1 3.44877,-10.2596 a72.6506,72.6506 0 0 0 4.6757,-11.82081 a118.02385,118.02385 0 0 0 0.6791100000000001,14.07981 C887.507872541504,192.272 878.328212541504,187.75400000000002 878.328212541504,187.75400000000002 z" fill="url(#ea70ace5-c99b-481d-ac97-2307e331f198)" id="svg_18"/><path d="M813.4592925415039,24.037049999999994 c-2.44545,1.6675300000000002 -5.00136,3.59509 -5.87166,6.42413 c-1.40363,4.56268 2.11921,9.14375 2.4676299999999998,13.90472 c0.63358,8.65733 -9.15673,15.812 -7.71333,24.37166 c0.98934,5.867 7.00327,9.85991 8.16172,15.69585 c1.6895000000000002,8.5112 -7.536,16.01691 -6.8100000000000005,24.66375 c0.38672000000000006,4.6058900000000005 3.5899,8.51741 7.225,11.37218 a35.16767,35.16767 0 0 0 17.64492,7.24044 c-0.42806000000000005,-7.40408 -5.91968,-14.14052 -4.9772,-21.49684 c0.6462700000000001,-5.04427 4.1951,-9.169 6.2483,-13.82164 c3.60492,-8.16882 2.4516299999999998,-17.62394 0.28900000000000003,-26.287 S824.8395425415039,48.87741 824.6824425415039,39.94999999999999 c-0.09457000000000003,-5.37353 2.42669,-13.27233 0.5772400000000001,-18.3713 C823.0113525415039,15.379999999999995 817.649042541504,21.180110000000013 813.4592925415039,24.037049999999994 z" fill="#3f3d56" id="svg_19"/><path d="M813.4592925415039,24.242999999999995 c-2.44545,1.6675400000000002 -5.00136,3.59509 -5.87166,6.42413 c-1.40363,4.56268 2.11921,9.14376 2.4676299999999998,13.90473 c0.63358,8.65733 -9.15673,15.812 -7.71333,24.37166 c0.98934,5.867 7.00327,9.85991 8.16172,15.69584 c1.6895000000000002,8.5112 -7.536,16.01691 -6.8100000000000005,24.66375 c0.38672000000000006,4.6058900000000005 3.5899,8.51741 7.225,11.37219 a35.16776,35.16776 0 0 0 17.64492,7.24044 c-0.42806000000000005,-7.40408 -5.91968,-14.14053 -4.9772,-21.49684 c0.6462700000000001,-5.04427 4.1951,-9.169 6.2483,-13.82164 c3.60492,-8.16882 2.4516299999999998,-17.62394 0.28900000000000003,-26.287 s-5.28421,-17.22691 -5.44131,-26.15434 c-0.09457000000000003,-5.37353 2.42669,-13.27232 0.5772400000000001,-18.3713 C823.0113525415039,15.586000000000013 817.649042541504,21.3861 813.4592925415039,24.242999999999995 z" opacity="1" id="svg_20" class="" fill-opacity="1" fill="#050505"/><path d="M820.6163725415039,523.86231 l-6.721,6.721 s-23.89679,12.695170000000001 -20.90969,-4.48064 a61.80274,61.80274 0 0 0 0.51528,-15.4433 a95.98483,95.98483 0 0 0 -4.24915,-21.14865 L811.6550425415039,485.03 c-3.7263900000000003,11.70942 2.41207,26.45074 6.243,33.95581 C819.443932541504,522.01028 820.6163725415039,523.86231 820.6163725415039,523.86231 z" fill="#f7ccbf" id="svg_21" class="" fill-opacity="1"/><path d="M871.5015925415039,510.27847999999994 a68.31511,68.31511 0 0 1 -0.85133,6.86286 s-18.66936,12.695170000000001 -20.16291,-1.49355 c-0.9708,-9.24507 1.22472,-13.41956 2.88254,-15.20431 l0.026160000000000006,-0.028480000000000005 a5.74873,5.74873 0 0 0 1.572,-3.8939000000000004 V479.80262000000005 L871.3970425415039,485.03 l-0.7467700000000002,14.18871 C871.7554725415039,502.16851999999994 871.7704225415039,506.57446000000004 871.5015925415039,510.27847999999994 z" fill="#f7ccbf" id="svg_22" class="" fill-opacity="1"/><path d="M820.6163725415039,523.86231 l-6.721,6.721 s-23.89679,12.695170000000001 -20.90969,-4.48064 a61.80274,61.80274 0 0 0 0.51528,-15.4433 c5.23489,-0.7691900000000002 11.43311,4.98845 11.43311,4.98845 c8.75218,12.35164 11.112,7.67682 12.964,3.33806 C819.443932541504,522.01028 820.6163725415039,523.86231 820.6163725415039,523.86231 z" opacity="0.05" id="svg_23"/><path d="M804.9341025415039,517.14134 s-10.45484,-9.70807 -15.68226,-2.24032 s0.7467700000000002,13.44194 -19.41614,28.37743 s0,24.64356 13.44194,18.66936 s41.0726,-21.65646 41.0726,-21.65646 s0,-24.64356 -3.73387,-23.89678 S817.629272541504,535.06393 804.9341025415039,517.14134 z" fill="#3f3d56" id="svg_24"/><path d="M871.5015925415039,510.27847999999994 a68.31511,68.31511 0 0 1 -0.85133,6.86286 s-18.66936,12.695170000000001 -20.16291,-1.49355 c-0.9708,-9.24507 1.22472,-13.41956 2.88254,-15.20431 a4.46077,4.46077 0 0 1 4.5852,-0.47800000000000004 c2.9871,-1.32928 6.27293,0.8886600000000001 8.99115,3.75625 A26.39928,26.39928 0 0 1 871.5015925415039,510.27847999999994 z" opacity="0.05" id="svg_25"/><path d="M857.9550925415039,501.45908 s-8.21452,-4.48065 -9.70807,15.68226 s-2.24032,17.92259 -2.24032,17.92259 s-7.46774,17.92259 8.21452,15.68226 s23.15,-3.73387 22.40324,-12.69516 c-0.45011,-5.40124 -1.71408,-13.24409 -2.64732,-18.62312 a27.38264,27.38264 0 0 0 -7.028,-14.2155 C864.2243125415039,502.34414000000004 860.9421925415039,500.13148 857.9550925415039,501.45908 z" fill="#3f3d56" id="svg_26" class=""/><path d="M884.8389825415039,405.87194 s2.9870900000000002,31.36453 0,40.32582 c-1.81466,5.4365 -2.80041,19.13236 -3.29326,29.057 c-0.3285800000000001,6.42229 -0.44062000000000007,11.26885 -0.44062000000000007,11.26885 c-14.18871,14.93549 -30.61775,0 -30.61775,0 s0,-5.24237 0.11946000000000002,-12.93414 c0.15684000000000003,-10.2084 0.52275,-24.74812 1.37409,-37.09975 a92.094,92.094 0 0 0 -1.8744100000000001,-27.541 A123.369,123.369 0 0 1 847.2090425415039,391.72799999999995 l-1.94907,-20.95449 c-6.721,-47.04679 -14.93549,-48.54034 -14.93549,-48.54034 c-0.26883,0.20907 -0.53023,0.4405700000000001 -0.79906,0.6795400000000001 c-11.47792,10.4698 -19.16969,47.50232 -23.0753,71.46633 c-2.00883,12.32926 -3.00953,21.20094 -3.00953,21.20094 s9.70807,40.32582 8.9613,45.55324 c-0.34353000000000006,2.427 0.59741,8.56549 1.7026700000000001,14.43512 c1.27695,6.77325 2.778,13.19554 2.778,13.19554 c-18.66937,20.16291 -31.36453,4.48065 -31.36453,4.48065 l-2.50915,-11.9932 l-14.66667,-70.152 s-6.721,-44.05969 0,-78.41132 a261.77029,261.77029 0 0 0 4.45823,-32.65648 a199.61659,199.61659 0 0 1 5.95181,-36.66661 q1.36656,-5.332 3.0319,-10.58178 s28.04138,-4.87646 54.44731,-4.87646 c19.80448,0 38.683,2.7406900000000003 44.12693,12.3442 q1.88185,3.31565 3.42024,6.64627 c9.45414,20.31975 9.73792,41.19211 0.31363,62.057 C873.6373625415039,352.10418000000004 884.8389825415039,405.87194 884.8389825415039,405.87194 z" fill="#715b7a" id="svg_27" class="" fill-opacity="1"/><path d="M822.1099225415039,134.7928 s-39.57905,-40.32583 -9.70807,-37.33873 c6.77325,0.6795500000000001 11.358460000000001,-0.53022 14.39783,-2.8004 c3.465,-2.58386 4.92122,-6.54175 5.32446,-10.67144 c0.82148,-8.2369 -2.54648,-17.14591 -2.54648,-17.14591 s40.32583,-32.11131 32.11131,8.21452 a68.74694,68.74694 0 0 0 -1.56821,12.46367 c-0.13446000000000002,8.558 2.68089,11.83635 6.63136,13.18054 c6.6612100000000005,2.2777 16.56345,-0.911 21.07395,6.46709 C896.0405925415039,120.60408000000001 822.1099225415039,134.7928 822.1099225415039,134.7928 z" fill="#ffb9b9" id="svg_28"/><path d="M822.1099225415039,134.7928 s-39.57905,-40.32583 -9.70807,-37.33873 c6.77325,0.6795500000000001 11.358460000000001,-0.53022 14.39783,-2.8004 c3.465,-2.58386 4.92122,-6.54175 5.32446,-10.67144 c0.82148,-8.2369 -2.54648,-17.14591 -2.54648,-17.14591 s40.32583,-32.11131 32.11131,8.21452 a68.74694,68.74694 0 0 0 -1.56821,12.46367 c-0.13446000000000002,8.558 2.68089,11.83635 6.63136,13.18054 c6.6612100000000005,2.2777 16.56345,-0.911 21.07395,6.46709 C896.0405925415039,120.60408000000001 822.1099225415039,134.7928 822.1099225415039,134.7928 z" opacity="1" id="svg_29" class="" fill-opacity="1" fill="#e0b7ac"/><path d="M880.3134210947418,55.63470000000001 a32.11131,32.11131 0 0 1 -64.22261,0 c0,-0.59741 0.014950000000000003,-1.19487 0.052280000000000014,-1.7848000000000002 a32.10995,32.10995 0 0 1 64.17033,1.7848000000000002 z" fill="#f7ccbf" id="svg_30" class="" fill-opacity="1"/><path d="M822.1099225415039,134.7928 s-39.57905,-40.32583 -9.70807,-37.33873 c6.77325,0.6795500000000001 11.358460000000001,-0.53022 14.39783,-2.8004 c-5.78007,9.58856 -12.28445,26.8316 16.9667,25.20364 c26.77185,-1.48608 26.31632,-12.15751 22.98574,-19.16226 c6.6612100000000005,2.2777 16.56345,-0.911 21.07395,6.46709 C896.0405925415039,120.60408000000001 822.1099225415039,134.7928 822.1099225415039,134.7928 z" opacity="0.05" id="svg_31"/><path d="M884.8389825415039,269.959 c-6.79563,8.83431 -93.42148,-2.74812 -106.08679,-6.594 q1.36656,-5.332 3.0319,-10.58178 s28.04138,-4.87646 54.44731,-4.87646 c19.80448,0 38.683,2.7406900000000003 44.12693,12.3442 q1.88185,3.31565 3.42024,6.64627 C884.2564725415039,269.57064 884.8389825415039,269.959 884.8389825415039,269.959 z" opacity="0.1" id="svg_32"/><path d="M828.7859810947418,92.27156144676209 s-50.40728,4.10726 -52.64761,23.5234 c-2.14167,18.56114 -8.5879,69.82341 -8.5879,69.82341 s-7.46775,41.0726 20.90968,21.65647 l-0.36433000000000015,1.093 a242.19087,242.19087 0 0 0 -10.41533,48.41343 c-0.28777,2.44837 -0.8653500000000003,4.378 -1.9155,5.00811 c-3.73388,2.24033 100.06778,17.17582 107.53553,7.46775 c0,0 -2.24033,-1.49355 -1.49355,-18.66936 s-5.9742,-35.09841 -5.9742,-35.09841 s-5.9742,-17.92258 2.24032,-35.0984 s5.22743,-22.40323 5.22743,-22.40323 l28.37743,-21.65646 s6.12844,-10.50591 -5.07516,-23.47414 a38.81153,38.81153 0 0 0 -26.6722,-13.14194 l-19.57358,-1.3923100000000006 s21.45,23.0729 -18.87587,25.31322 S828.7859810947418,92.27156144676209 828.7859810947418,92.27156144676209 z" fill="#dbc0d0" id="svg_33" class="" fill-opacity="1"/><path d="M796.7195825415039,131.8057 s1.49355,11.94839 -1.49354,15.68226 s-3.73388,20.90969 0,31.36453 " opacity="0.05" id="svg_34" class=""/><path d="M829.5253825415039,322.91274 c-11.47792,10.4698 -19.16969,47.50232 -23.0753,71.46633 c-5.43654,-33.3584 17.15339,-88.57491 17.15339,-88.57491 z" opacity="0.1" id="svg_35"/><path d="M816.8825025415039,488.76391 c-18.66937,20.16291 -31.36453,4.48065 -31.36453,4.48065 l-2.50915,-11.9932 c7.057,3.66664 18.983,6.51185 31.0957,-5.683 C815.3814725415039,482.34162000000003 816.8825025415039,488.76391 816.8825025415039,488.76391 z" opacity="0.1" id="svg_36"/><path d="M881.5457225415039,475.25473999999997 c-0.3285800000000001,6.42229 -0.44062000000000007,11.26885 -0.44062000000000007,11.26885 c-14.18871,14.93549 -30.61775,0 -30.61775,0 s0,-5.24237 0.11946000000000002,-12.93414 C856.7677025415039,477.50253999999995 867.8423825415039,481.81143999999995 881.5457225415039,475.25473999999997 z" opacity="0.1" id="svg_37"/><rect x="800.4534301757812" y="157.19602966308594" width="50.780670166015625" height="20.909690856933594" rx="3.75" fill="#cdd0db" id="svg_38"/><rect x="800.4534301757812" y="157.19602966308594" width="50.780670166015625" height="20.909690856933594" rx="3.75" opacity="0.05" id="svg_39"/><rect x="800.4534301757812" y="157.94281005859375" width="50.780670166015625" height="20.909690856933594" rx="3.75" fill="#3f3d56" id="svg_40"/><circle cx="840.4058837890625" cy="168.02426147460938" r="2.2403199672698975" fill="#9da7c0" id="svg_41"/><path d="M778.8411525415039,190.30791 a14.52273,14.52273 0 0 1 8.43648,-8.88785 a13.24085,13.24085 0 0 0 7.24336,-6.50348 c2.94537,-6.51893 8.17279,-13.2399 21.61473,-8.75925 s-3.73387,7.46774 -3.73387,7.46774 s30.61775,-4.48065 18.66936,4.48065 s-26.88388,14.18871 -26.88388,14.18871 l-7.35421,7.7868200000000005 a10.99157,10.99157 0 0 1 -16.41677,-0.3258200000000001 A9.51052,9.51052 0 0 1 778.8411525415039,190.30791 z" opacity="0.05" id="svg_42"/><path d="M778.0943825415039,188.81436000000002 a14.5227,14.5227 0 0 1 8.43648,-8.88785 a13.2408,13.2408 0 0 0 7.24335,-6.50348 c2.94537,-6.51893 8.1728,-13.2399 21.61474,-8.75925 s-3.73388,7.46774 -3.73388,7.46774 s30.61776,-4.48064 18.66937,4.48065 s-26.88389,14.18872 -26.88389,14.18872 l-7.35421,7.78681 a10.99157,10.99157 0 0 1 -16.41677,-0.3258200000000001 A9.51054,9.51054 0 0 1 778.0943825415039,188.81436000000002 z" fill="#f7ccbf" id="svg_43" class="" fill-opacity="1"/><path d="M883.3454325415039,204.24283000000003 L878.1180425415039,216.938 l-6.69111,-4.92126 l-18.69922,-13.7481 l-12.69516,-8.21452 c-17.92259,-13.44194 0,-15.68226 0,-15.68226 c-6.721,-2.9871 0,-5.9742 0,-5.9742 c23.89678,-5.22742 19.41613,14.18872 19.41613,14.18872 l15.13714,7.8486 l5.02577,2.60624 z" opacity="0.05" id="svg_44"/><path d="M884.8389825415039,202.74928 l-5.22743,12.69516 l-6.69111,-4.92126 l-18.69922,-13.7481 L841.5260425415039,188.56056 c-17.92258,-13.44194 0,-15.68226 0,-15.68226 c-6.721,-2.9871 0,-5.9742 0,-5.9742 c23.89679,-5.22742 19.41614,14.18872 19.41614,14.18872 l15.13714,7.8486 l5.02577,2.60624 z" fill="#f7ccbf" id="svg_45" class="" fill-opacity="1"/><path d="M884.8389825415039,202.74928 l-5.22743,12.69516 l-6.69111,-4.92126 c6.05637,0.21659000000000003 13.21044,-2.7108 3.15889,-21.58176 l5.02577,2.60624 z" opacity="0.05" id="svg_46"/><path d="M910.9311710947418,127.32499999999999 l1.4414600000000002,5.87527 l-4.42856,43.41185 l-3.73387,29.12421 s-1.49355,19.41613 -18.66936,14.18871 s-18.66936,-10.45484 -18.66936,-10.45484 s24.64355,8.21452 8.96129,-20.90969 c0,0 8.96129,4.48065 7.46775,-7.46774 s0,-32.85808 0,-32.85808 z" fill="#dbc0d0" id="svg_47" class="" fill-opacity="1"/><path d="M881.8518825415039,55.63470000000001 a32.11613,32.11613 0 0 1 -25.00947,31.31972 c-1.07536,-3.1066 -1.83708,-6.19821 -1.053,-9.34215 c1.516,-6.10114 8.55805,-10.55193 7.774,-16.78748 a4.13664,4.13664 0 0 0 -0.70945,-1.95659 c-1.5756800000000002,-2.076 -4.7868,-1.04546 -7.3408,-0.53018 a13.96841,13.96841 0 0 1 -15.62251,-9.63341 a21.8248,21.8248 0 0 1 -22.20907,5.14529 a32.10995,32.10995 0 0 1 64.17033,1.7848000000000002 z" opacity="0.05" id="svg_48"/><path d="M840.6408825415039,47.213359999999994 a13.95619,13.95619 0 0 0 15.6156,9.62952 c2.5563000000000002,-0.5102599999999999 5.76607,-1.5415299999999998 7.34188,0.535 a4.035,4.035 0 0 1 0.70847,1.9498600000000001 c0.7898400000000001,6.23968 -6.2529,10.68781 -7.76981,16.79161 c-1.56206,6.28541 3.0172,12.35622 3.992,18.759 c0.53324,3.50259 -0.030600000000000006,7.07063 0.009600000000000003,10.61334 s0.8356900000000002,7.34862 3.462,9.72669 s7.4807,2.40206 9.24018,-0.6731100000000001 c8.40293,4.4402 5.0476,18.203 11.42828,25.2465 c3.51923,3.88484 9.308440000000001,4.81913 14.5266,4.32143 a6.12723,6.12723 0 0 0 3.41465,-1.102 a5.9344,5.9344 0 0 0 1.67009,-3.13963 a25.4709,25.4709 0 0 0 -0.6502900000000001,-15.10526 c-0.8380000000000001,-2.31977 -2.03818,-4.66518 -1.72757,-7.112 a10.528880000000001,10.528880000000001 0 0 1 2.59014,-5.07553 c4.01189,-4.9736 9.48711,-9.78274 9.44734,-16.17261 c-0.03948,-6.34325 -5.57908,-11.20988 -7.64823,-17.2063 c-2.81605,-8.16089 1.09173,-16.90362 2.6990000000000003,-25.38577 a48.15685,48.15685 0 0 0 -10.16273,-39.2025 c-1.6277000000000001,-1.9538900000000001 -3.51745,-3.84371 -5.93935,-4.61928 c-3.68529,-1.18015 -7.60486,0.45952000000000004 -11.4444,0.9412 c-12.67433,1.59 -24.20548,-9.50443 -36.94048,-8.51122 a6.77869,6.77869 0 0 0 -2.45161,0.55757 c-1.6479300000000001,0.8005599999999999 -2.54132,2.56715 -3.55995,4.09 c-5.62152,8.404 -16.67361,10.7988 -25.3386,16.009 C787.8484525415039,38.29478 821.2879025415039,65.83904999999999 840.6408825415039,47.213359999999994 z" fill="#29292b" id="svg_49" class="" fill-opacity="1"/><path d="M783.277642541504,558.96071 c-8.72692,3.8786400000000003 -20.28242,1.1456 -21.80072,-5.3349400000000005 c-1.82942,8.55618 11.831479999999999,12.75283 21.80072,8.322 c13.44194,-5.97419 41.0726,-21.65646 41.0726,-21.65646 s-0.00009000000000000003,-1.15995 -0.03810000000000001,-2.96549 C823.5074825415039,537.7822 796.5185825415039,553.07585 783.277642541504,558.96071 z" fill="#fff" opacity="0.3" id="svg_50"/><path d="M876.5857625415039,537.62135 c-0.8610900000000001,6.71814 -8.31243,8.13029 -22.36454,10.13775 c-7.14623,1.02089 -9.47871,-2.14712 -9.90784,-5.89612 c-0.46715,4.80171 0.8965500000000001,10.17056 9.90784,8.88321 c15.68227,-2.24032 23.15,-3.73387 22.40324,-12.69516 C876.612832541504,537.9116 876.5984325415039,537.764 876.5857625415039,537.62135 z" fill="#fff" opacity="0.3" id="svg_51"/><g opacity="0.1" id="svg_52"><path d="M902.1822025415039,140.82252999999997 c-5.21817,0.49768000000000007 -11.00736,-0.43661000000000005 -14.5266,-4.32144 c-6.38067,-7.04354 -3.02534,-20.80631 -11.42829,-25.24649 c-1.75946,3.07516 -6.6139,3.05119 -9.24014,0.6730800000000001 s-3.42179,-6.184 -3.462,-9.72667 s0.5236700000000001,-7.11077 -0.009570000000000004,-10.61337 c-0.97476,-6.40282 -5.554,-12.4736 -3.992,-18.759 c1.51693,-6.10383 8.55965,-10.552 7.7698,-16.79163 a4.0347,4.0347 0 0 0 -0.7084400000000001,-1.94984 c-1.5758200000000002,-2.07651 -4.78562,-1.04523 -7.3419,-0.535 a13.9562,13.9562 0 0 1 -15.61558,-9.62954 c-17.29915,16.64906 -45.84737,-3.59148 -33.63986,-18.9427 c-19.04908,15.48131 12.20282,39.68639 30.65276,21.9298 a13.9562,13.9562 0 0 0 15.61558,9.62954 c2.55628,-0.51027 5.7660800000000005,-1.54155 7.3419,0.535 a4.03489,4.03489 0 0 1 0.70845,1.94985 c0.7898400000000001,6.23965 -6.25287,10.6878 -7.7698,16.79162 c-1.56206,6.28542 3.01722,12.35619 3.992,18.759 c0.53324,3.5026 -0.030580000000000006,7.07066 0.009580000000000003,10.61337 s0.8357000000000001,7.3486 3.462,9.72666 s7.48069,2.40209 9.24015,-0.6730700000000002 c8.40294,4.44017 5.04761,18.203 11.42828,25.24649 c3.51924,3.88483 9.30843,4.81912 14.5266,4.32143 a6.12751,6.12751 0 0 0 3.41468,-1.102 a4.86556,4.86556 0 0 0 1.3785,-2.18622 A10.46812,10.46812 0 0 1 902.1822025415039,140.82252999999997 z" id="svg_53"/><path d="M841.478832541504,3.7790999999999997 c0.25652,-0.38350000000000006 0.50525,-0.7824099999999999 0.7599400000000002,-1.17754 c-0.061800000000000015,0.026430000000000006 -0.12643000000000001,0.045210000000000014 -0.18710000000000002,0.07466000000000002 c-1.6479300000000001,0.8006000000000001 -2.54133,2.56717 -3.55994,4.09 q-0.5255599999999999,0.7857000000000001 -1.11273,1.5034 A21.34621,21.34621 0 0 0 841.478832541504,3.7790999999999997 z" id="svg_54"/></g><path d="M800.4534625415039,212.68479000000002 s-1.93248,6.721 10.762690000000001,9.70807 S800.4534625415039,212.68479000000002 800.4534625415039,212.68479000000002 z" opacity="0.1" id="svg_55"/><path d="M794.8954625415039,232.59877999999998 s-6.481,4.72957 9.15154,12.94409 S794.8954625415039,232.59877999999998 794.8954625415039,232.59877999999998 z" opacity="0.1" id="svg_56"/><path d="M780.3494725415039,311.508 s17.59421,-4.9785 19.99872,-12.44624 S780.3494725415039,311.508 780.3494725415039,311.508 z" opacity="0.1" id="svg_57"/><path d="M780.3494725415039,406.09938999999997 s7.57987,3.73387 12.37784,3.236 S780.3494725415039,406.09938999999997 780.3494725415039,406.09938999999997 z" opacity="0.1" id="svg_58"/><path d="M783.008822541504,416.55422999999996 s3.427,1.74247 9.71849,1.9914 S783.008822541504,416.55422999999996 783.008822541504,416.55422999999996 z" opacity="0.1" id="svg_59"/><path d="M911.7224725415039,445.20005000000003 a15.5288,15.5288 0 1 0 2.068,-29.78188 l0.3886800000000001,7.99268 l-3.78148,-6.8498 a15.47027,15.47027 0 0 0 -7.9713899999999995,8.74657 a15.22775,15.22775 0 0 0 -0.8932100000000001,4.2006 A15.52586,15.52586 0 0 0 911.7224725415039,445.20005000000003 z" fill="#57b894" id="svg_60"/><path d="M930.433382541504,537.90153 c-1.33487,-6.79742 4.44939,-12.823550000000001 10.16291,-16.74051 s12.38944,-7.76554 14.3389,-14.41283 c2.80172,-9.55332 -5.54375,-18.30237 -12.03926,-25.84718 a93.48983,93.48983 0 0 1 -12.3287,-18.32295 a25.22231,25.22231 0 0 1 -2.94886,-8.33146 c-0.51215,-4.23462 0.8483,-8.44847 2.21891,-12.48774 q6.8489,-20.184 14.64532,-40.0298 " fill="none" stroke="#3f3d56" stroke-miterlimit="10" id="svg_61"/><path d="M912.3620425415039,443.14227000000005 a15.5288,15.5288 0 1 0 2.068,-29.78187 l0.3886800000000001,7.99267 l-3.78148,-6.8497900000000005 a15.47022,15.47022 0 0 0 -7.9713899999999995,8.74656 a15.22791,15.22791 0 0 0 -0.8932100000000001,4.2006 A15.52585,15.52585 0 0 0 912.3620425415039,443.14227000000005 z" fill="#c3e0dd" stroke="#3f3d56" stroke-miterlimit="10" id="svg_62" class="" fill-opacity="1"/><path d="M928.5353825415039,398.96885999999995 a15.51067,15.51067 0 0 1 11.17694,-9.84713 l1.27858,7.59841 l2.37047,-7.98034 a15.52689,15.52689 0 1 1 -14.826,10.22906 z" fill="#57b894" id="svg_63"/><path d="M929.3880425415039,396.22515999999996 A15.51068,15.51068 0 0 1 940.565042541504,386.37800000000004 l1.27857,7.59841 l2.37047,-7.98034 a15.52689,15.52689 0 1 1 -14.826,10.22906 z" fill="#a4d8d3" stroke="#3f3d56" stroke-miterlimit="10" id="svg_64" class="" fill-opacity="1"/><path d="M940.170042541504,481.05499999999995 a15.52693,15.52693 0 0 0 13.743,-27.62365 l-1.82146,6.13262 l-1.2915800000000002,-7.688000000000001 a0.27155,0.27155 0 0 0 -0.03953000000000001,-0.015000000000000003 a15.52776,15.52776 0 1 0 -10.59039,29.194 z" fill="#57b894" id="svg_65"/><path d="M940.9088725415038,478.27592000000004 a15.52693,15.52693 0 0 0 13.743,-27.62365 l-1.82145,6.13262 l-1.29159,-7.688000000000001 a0.27093,0.27093 0 0 0 -0.039520000000000007,-0.015000000000000003 a15.52776,15.52776 0 1 0 -10.59039,29.194 z" fill="#a4d8d3" stroke="#3f3d56" stroke-miterlimit="10" id="svg_66" class="" fill-opacity="1"/><path d="M924.0037525415039,506.84315000000004 a15.52043,15.52043 0 1 0 2.9924,-12.15992 l6.9186,10.41337 l-9.4534,-5.52709 A15.38252,15.38252 0 0 0 924.0037525415039,506.84315000000004 z" fill="#57b894" id="svg_67"/><path d="M924.6432725415038,504.78538000000003 a15.52042,15.52042 0 1 0 2.9924,-12.15993 l6.9186,10.41337 l-9.4534,-5.52708 A15.38252,15.38252 0 0 0 924.6432725415038,504.78538000000003 z" fill="#96cec8" stroke="#3f3d56" stroke-miterlimit="10" id="svg_68" class="" fill-opacity="1"/><path d="M908.8736925415039,547.10881 s13.703,-5.37011 17.832720000000002,-8.31084 s21.07863,-6.45212 22.10312,-1.73584 s20.593,23.45665 5.12244,23.58144 s-35.94679,2.53829 -40.06858,0.027540000000000005 S908.8736925415039,547.10881 908.8736925415039,547.10881 z" fill="#656380" id="svg_69"/><path d="M954.2080425415038,559.00181 c-15.4706,0.12482000000000001 -35.94678,2.53831 -40.06857,0.027560000000000008 c-3.1390000000000002,-1.91207 -4.38981,-8.773 -4.80833,-11.9384 c-0.28985000000000005,0.01246 -0.45746000000000003,0.017830000000000002 -0.45746000000000003,0.017830000000000002 s0.8679100000000001,11.05155 4.9897,13.5623 s24.598,0.09727000000000004 40.06858,-0.02755000000000001 c4.46574,-0.036000000000000004 6.00829,-1.62487 5.92359,-3.97809 C959.235182541504,558.08722 957.5319825415038,558.975 954.2080425415038,559.00181 z" opacity="0.2" id="svg_70"/></g></svg>